<svg width="355" height="254" viewBox="0 0 355 254" fill="none" xmlns="http://www.w3.org/2000/svg">
<path d="M177.636 7.28382C241.656 6.2097 294.882 121.577 295.766 173.614C296.767 232.359 66.2511 236.229 65.2508 177.484C64.3617 125.451 113.615 8.35793 177.636 7.28382Z" fill="#F2FBF7"/>
<path d="M179.512 104.975C179.512 104.975 170.166 123.653 166.078 126.942C166.078 126.942 162.324 90.0816 182.121 92.6086L179.512 104.975Z" fill="#913F2D"/>
<path d="M191.261 89.6124L178.181 111.867C178.181 111.867 167.961 91.1805 177.727 81.8443C187.492 72.5081 198.766 77.0059 198.766 77.0059L191.261 89.6124Z" fill="#A6531A"/>
<path d="M206.686 70.4171L183.632 89.0511C183.632 89.0511 183.391 71.9851 193.156 62.649C202.922 53.3128 214.195 57.8106 214.195 57.8106L206.686 70.4171Z" fill="#EA5153"/>
<path d="M221.514 57.6377C221.514 57.6377 204.66 68.3454 199.62 69.8462C199.62 69.8462 211.304 37.383 228.656 47.1747L221.514 57.6377Z" fill="#F08137"/>
<path d="M244.646 55.4511C244.646 55.4511 231.334 55.6142 215.557 62.0301C215.557 62.0301 219.403 55.5039 221.945 52.2911C227.545 45.2182 239.94 40.8834 245.951 46.2684C251.967 51.6533 244.926 54.6647 244.646 55.4511Z" fill="#A6531A"/>
<path d="M247.324 51.5532C247.324 51.5532 244.454 48.2397 229.847 52.1718C219.303 55.0105 173.499 69.8468 153.345 155.623C153.345 155.623 179.839 174.137 207.261 172.3L229.847 170.723L221.709 123.903" fill="white"/>
<path d="M247.324 51.5532C247.324 51.5532 244.454 48.2397 229.847 52.1718C219.303 55.0105 173.499 69.8468 153.345 155.623C153.345 155.623 179.839 174.137 207.261 172.3L229.847 170.723L221.709 123.903" stroke="#050607" stroke-width="2" stroke-miterlimit="10" stroke-linecap="round" stroke-linejoin="round"/>
<path d="M257.556 71.0982C252.405 58.7266 271.076 46.8874 274.048 48.3691C275.942 49.3137 271.787 59.6857 271.787 59.6857C271.787 59.6857 271.289 68.6191 266.718 72.0284" fill="white"/>
<path d="M257.556 71.0982C252.405 58.7266 271.076 46.8874 274.048 48.3691C275.942 49.3137 271.787 59.6857 271.787 59.6857C271.787 59.6857 271.289 68.6191 266.718 72.0284" stroke="#050607" stroke-width="2" stroke-miterlimit="10" stroke-linecap="round" stroke-linejoin="round"/>
<path d="M237.232 61.3495C234.304 46.7962 257.014 37.3353 259.909 39.5267C261.755 40.9221 255.053 51.5194 255.053 51.5194C255.053 51.5194 252.608 61.2296 246.939 64.1067" fill="white"/>
<path d="M237.232 61.3495C234.304 46.7962 257.014 37.3353 259.909 39.5267C261.755 40.9221 255.053 51.5194 255.053 51.5194C255.053 51.5194 252.608 61.2296 246.939 64.1067" stroke="#050607" stroke-width="2" stroke-miterlimit="10" stroke-linecap="round" stroke-linejoin="round"/>
<path d="M209.338 92.4079C208.937 120.656 225.975 125.202 228.632 128.257C231.29 131.316 231.942 134.984 231.942 134.984H259.732C256.518 121.534 265.25 105.043 265.25 105.043C265.25 105.043 266.946 99.217 268.183 96.7907C269.415 94.3691 269.415 78.8568 269.415 78.8568C269.415 78.8568 270.406 67.0031 260.205 60.333C250.005 53.663 242.017 55.8783 242.017 55.8783" fill="white"/>
<path d="M209.338 92.4079C208.937 120.656 225.975 125.202 228.632 128.257C231.29 131.316 231.942 134.984 231.942 134.984H259.732C256.518 121.534 265.25 105.043 265.25 105.043C265.25 105.043 266.946 99.217 268.183 96.7907C269.415 94.3691 269.415 78.8568 269.415 78.8568C269.415 78.8568 270.406 67.0031 260.205 60.333C250.005 53.663 242.017 55.8783 242.017 55.8783" stroke="#050607" stroke-width="2" stroke-miterlimit="10" stroke-linecap="round" stroke-linejoin="round"/>
<path d="M248.775 54.1229C248.775 54.1229 255.574 42.1398 268.969 53.5715C275.217 58.9037 274.888 76.0416 270.385 80.5971C270.38 80.6018 244.905 68.4269 248.775 54.1229Z" fill="#A6531A"/>
<path d="M265.277 99.3797C265.277 99.3797 262.89 100.684 259.759 98.1953" stroke="#21294C" stroke-width="2" stroke-miterlimit="10" stroke-linecap="round" stroke-linejoin="round"/>
<path d="M244.516 93.5491C244.516 93.5491 240.558 95.3665 237.123 90.1973" stroke="#21294C" stroke-width="2" stroke-miterlimit="10" stroke-linecap="round" stroke-linejoin="round"/>
<path d="M236.909 81.0002C236.909 81.0002 240.794 80.0316 244.988 81.1105C249.182 82.1846 250.1 86.3324 248.056 86.3516C246.012 86.3708 244.79 83.4745 235.923 84.0979C234.584 84.189 234.468 81.3454 236.909 81.0002Z" fill="#A6531A"/>
<path d="M269.958 92.432C269.958 92.432 267.986 90.0297 265.377 89.0371C262.768 88.0445 261.168 91.2141 262.449 91.6744C266.556 93.1561 269.112 95.688 269.798 95.1893C270.489 94.6954 271.253 93.7459 269.958 92.432Z" fill="#A6531A"/>
<path d="M257.44 144.138C257.44 144.138 266.336 138.24 261.258 130.04C258.827 126.113 258.504 130.117 249.525 127.206C240.543 124.296 237.237 119.549 233.671 120.906C230.105 122.263 225.621 130.971 227.564 137.684C229.651 144.881 231.101 145.912 234.986 148.329C238.861 150.746 256.663 155.728 257.44 144.138Z" fill="#A6531A"/>
<path d="M257.441 144.138C257.441 144.138 250.242 137.252 236.973 141.275" stroke="#050607" stroke-width="2" stroke-miterlimit="10" stroke-linecap="round" stroke-linejoin="round"/>
<path d="M252.576 230.964C255.277 227.717 257.818 206.988 259.761 208.048C261.703 209.107 305.26 208.239 305.26 208.239C313.576 201.426 319.413 190.622 302.757 181.152C302.757 181.152 271.363 161.151 249.879 161.736C228.396 162.321 227.096 155.723 227.096 155.723C227.096 155.723 192.633 175.503 154.986 149.053C154.986 149.053 112.092 149.652 106.704 192.252C106.704 192.252 97.0882 206.01 93.7637 222.059" fill="white"/>
<path d="M252.576 230.964C255.277 227.717 257.818 206.988 259.761 208.048C261.703 209.107 305.26 208.239 305.26 208.239C313.576 201.426 319.413 190.622 302.757 181.152C302.757 181.152 271.363 161.151 249.879 161.736C228.396 162.321 227.096 155.723 227.096 155.723C227.096 155.723 192.633 175.503 154.986 149.053C154.986 149.053 112.092 149.652 106.704 192.252C106.704 192.252 97.0882 206.01 93.7637 222.059" stroke="#050607" stroke-width="2" stroke-miterlimit="10" stroke-linecap="round" stroke-linejoin="round"/>
<path d="M287.105 135.43C287.105 135.43 274.735 121.409 273.58 117.693C272.426 113.981 269.594 108.615 269.386 106.688C269.178 104.765 270.256 101.039 269.99 96.6611C269.724 92.2783 270.527 75.0253 268.275 72.973C266.023 70.9207 254.015 79.9308 251.957 82.7312C249.893 85.5267 248.473 90.811 249.439 93.1846C250.406 95.5534 253.421 96.2056 254.17 99.3896C254.919 102.574 255.46 103.835 254.078 108.62C252.696 113.406 252.812 114.653 254.953 119.664C257.093 124.674 262.655 125.912 271.082 140.815" fill="white"/>
<path d="M287.105 135.43C287.105 135.43 274.735 121.409 273.58 117.693C272.426 113.981 269.594 108.615 269.386 106.688C269.178 104.765 270.256 101.039 269.99 96.6611C269.724 92.2783 270.527 75.0253 268.275 72.973C266.023 70.9207 254.015 79.9308 251.957 82.7312C249.893 85.5267 248.473 90.811 249.439 93.1846C250.406 95.5534 253.421 96.2056 254.17 99.3896C254.919 102.574 255.46 103.835 254.078 108.62C252.696 113.406 252.812 114.653 254.953 119.664C257.093 124.674 262.655 125.912 271.082 140.815" stroke="#050607" stroke-width="2" stroke-miterlimit="10" stroke-linecap="round" stroke-linejoin="round"/>
<path d="M251.411 91.1227C255.131 89.7609 263.786 86.9653 268.536 88.8738C268.536 88.8738 269.942 88.7827 269.918 86.9701C269.894 85.1576 270.164 75.2172 267.927 73.6731C266.139 72.4408 265.081 74.0999 260.727 76.0851C256.373 78.0703 251.232 83.4792 250.507 86.2844C250.154 87.6462 249.995 89.0225 249.869 90.0103C249.777 90.7967 250.662 91.3961 251.411 91.1227Z" fill="#A6531A"/>
<path d="M271.097 114.648C268.546 117.597 263.337 123.064 258.514 124.728C257.301 125.145 256.78 126.54 257.461 127.614C258.659 129.504 260.302 131.829 261.153 131.887C262.52 131.983 271.165 125.25 275.272 119.175C275.63 118.643 275.678 117.971 275.436 117.377C275.175 116.729 274.794 115.847 274.339 114.998C273.692 113.78 272.006 113.598 271.097 114.648Z" fill="#CDA694" stroke="#050607" stroke-width="2" stroke-miterlimit="10" stroke-linecap="round" stroke-linejoin="round"/>
<path d="M278.156 120.22C276.803 121.965 274.619 124.617 272.309 126.746C271.048 127.911 269.067 127.806 267.926 126.525L264.901 123.125C263.785 121.869 263.896 119.951 265.167 118.843C266.762 117.458 268.878 115.444 270.613 113.2C271.86 111.588 274.276 111.521 275.522 113.132L278.146 116.532C278.992 117.621 279.001 119.131 278.156 120.22Z" fill="#937574" stroke="#050607" stroke-width="2" stroke-miterlimit="10" stroke-linecap="round" stroke-linejoin="round"/>
<path d="M302.56 208.139C311.625 209.448 337.912 201.119 318.588 167.553C312.901 157.675 283.57 128.343 283.57 128.343C283.57 128.343 272.809 144.737 264.391 144.368C264.391 144.368 272.297 163.021 281.729 177.805" fill="white"/>
<path d="M302.56 208.139C311.625 209.448 337.912 201.119 318.588 167.553C312.901 157.675 283.57 128.343 283.57 128.343C283.57 128.343 272.809 144.737 264.391 144.368C264.391 144.368 272.297 163.021 281.729 177.805" stroke="#050607" stroke-width="2" stroke-miterlimit="10" stroke-linecap="round" stroke-linejoin="round"/>
<path d="M52.7896 184.369L68.2475 179.291C71.6589 178.169 73.5096 174.52 72.3789 171.135L59.0568 131.181C57.9261 127.796 54.2489 125.959 50.8374 127.081L35.3795 132.16C31.9681 133.282 30.1174 136.931 31.2481 140.316L44.5702 180.269C45.7009 183.655 49.3781 185.491 52.7896 184.369Z" fill="#6D6D6D" stroke="#050607" stroke-width="2" stroke-miterlimit="10" stroke-linecap="round" stroke-linejoin="round"/>
<path d="M53.2838 136.753C52.2217 136.753 51.3607 135.899 51.3607 134.845C51.3607 133.791 52.2217 132.937 53.2838 132.937C54.346 132.937 55.207 133.791 55.207 134.845C55.207 135.899 54.346 136.753 53.2838 136.753Z" fill="#050607"/>
<path d="M55.0108 142.848C53.7244 142.848 52.6817 141.813 52.6817 140.537C52.6817 139.26 53.7244 138.226 55.0108 138.226C56.2971 138.226 57.3398 139.26 57.3398 140.537C57.3398 141.813 56.2971 142.848 55.0108 142.848Z" fill="#050607"/>
<path d="M75.8555 197.868C75.8555 197.868 70.0714 183.425 69.6945 182.38C69.3128 181.334 68.6266 175.086 64.9881 170.612C61.3495 166.138 64.6305 163.631 60.9629 158.15C57.2905 152.669 55.4543 148.684 45.9254 149.082C35.1015 149.538 34.7536 164.345 39.5518 171.399C39.5518 171.399 45.0943 174.544 46.312 175.652C47.5296 176.76 48.4864 183.813 50.6898 185.564C52.8933 187.319 54.8938 188.709 56.9813 190.968C59.0736 193.226 65.766 207.914 65.766 207.914" fill="white"/>
<path d="M75.8555 197.868C75.8555 197.868 70.0714 183.425 69.6945 182.38C69.3128 181.334 68.6266 175.086 64.9881 170.612C61.3495 166.138 64.6305 163.631 60.9629 158.15C57.2905 152.669 55.4543 148.684 45.9254 149.082C35.1015 149.538 34.7536 164.345 39.5518 171.399C39.5518 171.399 45.0943 174.544 46.312 175.652C47.5296 176.76 48.4864 183.813 50.6898 185.564C52.8933 187.319 54.8938 188.709 56.9813 190.968C59.0736 193.226 65.766 207.914 65.766 207.914" stroke="#050607" stroke-width="2" stroke-miterlimit="10" stroke-linecap="round" stroke-linejoin="round"/>
<path d="M38.6832 168.335C39.1036 169.562 40.8093 169.658 41.4037 168.507C42.8871 165.63 45.9072 161.746 51.5898 161.032C55.238 160.571 57.6685 160.581 59.268 160.763C60.4518 160.898 61.283 159.632 60.7079 158.591C59.5724 156.529 57.8473 153.911 55.7067 152.213C51.7202 149.053 44.6895 148.953 42.7615 150.291C38.2338 153.431 35.2862 158.409 38.6832 168.335Z" fill="#A6531A"/>
<path d="M139.098 210.518C135.454 217.318 131.497 236.163 102.596 245.911C83.2337 252.442 63.799 218.277 55.2075 195.102C55.2075 195.102 53.985 191.404 66.5919 185.765C73.4342 182.706 73.4342 182.706 73.4342 182.706C73.4342 182.706 84.2001 197.643 99.17 212.436" fill="white"/>
<path d="M139.098 210.518C135.454 217.318 131.497 236.163 102.596 245.911C83.2337 252.442 63.799 218.277 55.2075 195.102C55.2075 195.102 53.985 191.404 66.5919 185.765C73.4342 182.706 73.4342 182.706 73.4342 182.706C73.4342 182.706 84.2001 197.643 99.17 212.436" stroke="#050607" stroke-width="2" stroke-miterlimit="10" stroke-linecap="round" stroke-linejoin="round"/>
<path d="M133.372 222.007C133.372 222.007 135.788 230.959 139.098 235.668Z" fill="white"/>
<path d="M133.372 222.007C133.372 222.007 135.788 230.959 139.098 235.668" stroke="#050607" stroke-width="2" stroke-miterlimit="10" stroke-linecap="round" stroke-linejoin="round"/>
<path d="M88.0048 116.781H123.323C127.966 116.781 131.73 113.046 131.73 108.437V91.3475C131.73 86.7393 127.966 83.0039 123.323 83.0039H88.0048C83.3611 83.0039 79.5969 86.7393 79.5969 91.3475V108.433C79.5969 113.041 83.3611 116.781 88.0048 116.781Z" fill="#EB7D6B" stroke="#050607" stroke-width="2" stroke-miterlimit="10" stroke-linecap="round" stroke-linejoin="round"/>
<path d="M79.598 109.853V123.701C79.598 123.701 84.2803 118.911 99.168 116.777" fill="#EB7D6B"/>
<path d="M79.598 109.853V123.701C79.598 123.701 84.2803 118.911 99.168 116.777" stroke="#050607" stroke-width="2" stroke-miterlimit="10" stroke-linecap="round" stroke-linejoin="round"/>
<path d="M97.8445 101.463H99.3V103.513H97.8445V106.284H95.2951V103.513H90.0287L89.9141 101.912L95.2686 93.4767H97.8445V101.463ZM92.4546 101.463H95.2951V96.9423L95.1275 97.2326L92.4546 101.463Z" fill="#000D1A"/>
<path d="M109.321 100.988C109.321 102.759 108.954 104.114 108.218 105.052C107.483 105.99 106.407 106.46 104.99 106.46C103.59 106.46 102.52 105.999 101.779 105.079C101.038 104.158 100.658 102.839 100.641 101.12V98.7631C100.641 96.9746 101.011 95.6171 101.752 94.6905C102.499 93.764 103.572 93.3008 104.972 93.3008C106.372 93.3008 107.442 93.7611 108.183 94.6818C108.924 95.5965 109.303 96.913 109.321 98.6312V100.988ZM106.772 98.4025C106.772 97.3411 106.625 96.57 106.331 96.0891C106.042 95.6024 105.59 95.359 104.972 95.359C104.372 95.359 103.928 95.5907 103.64 96.0539C103.358 96.5113 103.208 97.2297 103.19 98.2089V101.323C103.19 102.367 103.331 103.143 103.614 103.654C103.902 104.158 104.361 104.41 104.99 104.41C105.613 104.41 106.063 104.167 106.339 103.68C106.616 103.193 106.76 102.449 106.772 101.446V98.4025Z" fill="#000D1A"/>
<path d="M118.592 101.463H120.048V103.513H118.592V106.284H116.043V103.513H110.777L110.662 101.912L116.016 93.4767H118.592V101.463ZM113.202 101.463H116.043V96.9423L115.875 97.2326L113.202 101.463Z" fill="#000D1A"/>
</svg>
