<svg width="29" height="28" viewBox="0 0 29 28" fill="none" xmlns="http://www.w3.org/2000/svg">
<path d="M5.98167 12.185C8.26167 16.43 11.935 19.91 16.4158 22.07L19.8992 18.77C20.3425 18.35 20.96 18.23 21.5142 18.395C23.2875 18.95 25.1875 19.25 27.1667 19.25C27.5866 19.25 27.9893 19.408 28.2863 19.6893C28.5832 19.9706 28.75 20.3522 28.75 20.75V26C28.75 26.3978 28.5832 26.7794 28.2863 27.0607C27.9893 27.342 27.5866 27.5 27.1667 27.5C20.0279 27.5 13.1816 24.8134 8.13371 20.0312C3.08585 15.249 0.25 8.76302 0.25 2C0.25 1.60218 0.416815 1.22064 0.713748 0.93934C1.01068 0.658035 1.41341 0.5 1.83333 0.5H7.375C7.79493 0.5 8.19765 0.658035 8.49459 0.93934C8.79152 1.22064 8.95833 1.60218 8.95833 2C8.95833 3.875 9.275 5.675 9.86083 7.355C10.035 7.88 9.90833 8.465 9.465 8.885L5.98167 12.185Z" fill="#4D565F"/>
</svg>
