<svg width="33" height="32" viewBox="0 0 33 32" fill="none" xmlns="http://www.w3.org/2000/svg">
<rect width="33" height="32" rx="4" fill="#27AE60"/>
<path d="M10.62 14.79C12.06 17.62 14.38 19.94 17.21 21.38L19.41 19.18C19.69 18.9 20.08 18.82 20.43 18.93C21.55 19.3 22.75 19.5 24 19.5C24.2652 19.5 24.5196 19.6054 24.7071 19.7929C24.8946 19.9804 25 20.2348 25 20.5V24C25 24.2652 24.8946 24.5196 24.7071 24.7071C24.5196 24.8946 24.2652 25 24 25C19.4913 25 15.1673 23.2089 11.9792 20.0208C8.79107 16.8327 7 12.5087 7 8C7 7.73478 7.10536 7.48043 7.29289 7.29289C7.48043 7.10536 7.73478 7 8 7H11.5C11.7652 7 12.0196 7.10536 12.2071 7.29289C12.3946 7.48043 12.5 7.73478 12.5 8C12.5 9.25 12.7 10.45 13.07 11.57C13.18 11.92 13.1 12.31 12.82 12.59L10.62 14.79Z" fill="white"/>
</svg>
