<svg width="70" height="65" viewBox="0 0 70 65" fill="none" xmlns="http://www.w3.org/2000/svg">
<path d="M34.9626 10.1562C28.5939 10.1563 22.4861 12.5103 17.9827 16.7006C13.4794 20.8908 10.9495 26.5741 10.9495 32.5C10.9495 38.4259 13.4794 44.1092 17.9827 48.2994C22.4861 52.4897 28.5939 54.8438 34.9626 54.8438C41.3312 54.8438 47.4391 52.4897 51.9424 48.2994C56.4457 44.1092 58.9757 38.4259 58.9757 32.5C58.9757 26.5741 56.4457 20.8908 51.9424 16.7006C47.4391 12.5103 41.3312 10.1563 34.9626 10.1562Z" stroke="#4D565F" stroke-width="2" stroke-miterlimit="10"/>
<path d="M58.838 34.86C58.8423 34.8275 58.8489 34.7971 58.8511 34.7666C58.8489 34.7971 58.8423 34.8275 58.838 34.86ZM11.0715 34.7585C11.0759 34.8011 11.0846 34.8438 11.089 34.8864C11.0868 34.8418 11.0759 34.7991 11.0715 34.7585ZM38.2129 38.4229H44.4279L45.4037 32.5485H38.2129V29.3371C38.2129 26.8975 39.0708 24.7322 41.5223 24.7322H45.4649V19.6074C44.7728 19.52 43.308 19.3291 40.54 19.3291C34.7594 19.3291 31.3713 22.1688 31.3713 28.6404V32.5485H25.4292V38.4229H31.3713V54.5672C32.548 54.7318 33.7399 54.8435 34.9624 54.8435C36.0692 54.8435 37.1476 54.75 38.2129 54.616V38.4229Z" fill="#4D565F"/>
</svg>
