<svg width="30" height="30" viewBox="0 0 30 30" fill="none" xmlns="http://www.w3.org/2000/svg">
<path d="M15 1.25C11.3533 1.25 7.85591 2.69866 5.27728 5.27728C2.69866 7.85591 1.25 11.3533 1.25 15C1.25 18.6467 2.69866 22.1441 5.27728 24.7227C7.85591 27.3013 11.3533 28.75 15 28.75C18.6467 28.75 22.1441 27.3013 24.7227 24.7227C27.3013 22.1441 28.75 18.6467 28.75 15C28.75 11.3533 27.3013 7.85591 24.7227 5.27728C22.1441 2.69866 18.6467 1.25 15 1.25Z" stroke="white" stroke-width="2" stroke-miterlimit="10"/>
<path d="M28.6713 16.4525C28.6738 16.4325 28.6776 16.4138 28.6788 16.395C28.6776 16.4138 28.6738 16.4325 28.6713 16.4525ZM1.32007 16.39C1.32257 16.4163 1.32757 16.4425 1.33007 16.4688C1.32882 16.4413 1.32257 16.415 1.32007 16.39ZM16.8613 18.645H20.4201L20.9788 15.03H16.8613V13.0538C16.8613 11.5525 17.3526 10.22 18.7563 10.22H21.0138V7.06627C20.6176 7.01252 19.7788 6.89502 18.1938 6.89502C14.8838 6.89502 12.9438 8.64252 12.9438 12.625V15.03H9.54132V18.645H12.9438V28.58C13.6176 28.6813 14.3001 28.75 15.0001 28.75C15.6338 28.75 16.2513 28.6925 16.8613 28.61V18.645Z" fill="white"/>
</svg>
