<svg width="40" height="40" viewBox="0 0 40 40" fill="none" xmlns="http://www.w3.org/2000/svg">
<path d="M20 6.25C16.3533 6.25 12.8559 7.69866 10.2773 10.2773C7.69866 12.8559 6.25 16.3533 6.25 20C6.25 23.6467 7.69866 27.1441 10.2773 29.7227C12.8559 32.3013 16.3533 33.75 20 33.75C23.6467 33.75 27.1441 32.3013 29.7227 29.7227C32.3013 27.1441 33.75 23.6467 33.75 20C33.75 16.3533 32.3013 12.8559 29.7227 10.2773C27.1441 7.69866 23.6467 6.25 20 6.25Z" stroke="#4D565F" stroke-width="2" stroke-miterlimit="10"/>
<path d="M33.6711 21.4525C33.6736 21.4325 33.6773 21.4138 33.6786 21.395C33.6773 21.4138 33.6736 21.4325 33.6711 21.4525ZM6.31982 21.39C6.32232 21.4163 6.32732 21.4425 6.32982 21.4688C6.32857 21.4413 6.32232 21.415 6.31982 21.39ZM21.8611 23.645H25.4198L25.9786 20.03H21.8611V18.0538C21.8611 16.5525 22.3523 15.22 23.7561 15.22H26.0136V12.0663C25.6173 12.0125 24.7786 11.895 23.1936 11.895C19.8836 11.895 17.9436 13.6425 17.9436 17.625V20.03H14.5411V23.645H17.9436V33.58C18.6173 33.6813 19.2998 33.75 19.9998 33.75C20.6336 33.75 21.2511 33.6925 21.8611 33.61V23.645Z" fill="#4D565F"/>
</svg>
