<svg width="24" height="24" viewBox="0 0 24 24" fill="none" xmlns="http://www.w3.org/2000/svg">
<path d="M12.0054 2C8.12954 2 4.76616 4.21905 3.11098 7.4541C3.05589 7.55192 3.02112 7.65986 3.00875 7.77145C2.99639 7.88305 3.00669 7.99599 3.03903 8.1035C3.07138 8.21102 3.1251 8.31088 3.19697 8.3971C3.26884 8.48333 3.35739 8.55413 3.45729 8.60526C3.55719 8.65639 3.66638 8.6868 3.77832 8.69466C3.89026 8.70251 4.00263 8.68766 4.10868 8.65098C4.21474 8.61431 4.31229 8.55657 4.39549 8.48123C4.47869 8.40589 4.54582 8.31451 4.59285 8.21256C5.97254 5.51595 8.7639 3.66667 12.0054 3.66667C16.6148 3.66667 20.3338 7.38789 20.3338 12C20.3338 16.6121 16.6148 20.3333 12.0054 20.3333C8.7639 20.3333 5.97254 18.484 4.59285 15.7874C4.54582 15.6855 4.47869 15.5941 4.39549 15.5188C4.31229 15.4434 4.21474 15.3857 4.10868 15.349C4.00263 15.3123 3.89026 15.2975 3.77832 15.3053C3.66638 15.3132 3.55719 15.3436 3.45729 15.3947C3.35739 15.4459 3.26884 15.5167 3.19697 15.6029C3.1251 15.6891 3.07137 15.789 3.03903 15.8965C3.00669 16.004 2.99639 16.117 3.00875 16.2285C3.02112 16.3401 3.05589 16.4481 3.11098 16.5459C4.76616 19.781 8.12954 22 12.0054 22C17.5151 22 21.9995 17.5129 21.9995 12C21.9995 6.48711 17.5151 2 12.0054 2ZM11.1645 7.8252C10.9988 7.82524 10.8369 7.87472 10.6995 7.96732C10.562 8.05991 10.4553 8.19141 10.393 8.345C10.3306 8.4986 10.3155 8.6673 10.3495 8.82956C10.3835 8.99181 10.465 9.14024 10.5838 9.25586L12.4934 11.1667H2.84421C2.73385 11.1651 2.62428 11.1855 2.52187 11.2267C2.41946 11.2679 2.32624 11.329 2.24765 11.4065C2.16905 11.4841 2.10664 11.5765 2.06405 11.6783C2.02145 11.7802 1.99951 11.8896 1.99951 12C1.99951 12.1104 2.02145 12.2198 2.06405 12.3217C2.10664 12.4235 2.16905 12.5159 2.24765 12.5935C2.32624 12.671 2.41946 12.7321 2.52187 12.7733C2.62428 12.8145 2.73385 12.8349 2.84421 12.8333H12.4934L10.5838 14.7441C10.5038 14.8209 10.44 14.9129 10.3961 15.0147C10.3521 15.1164 10.3289 15.226 10.3277 15.3368C10.3266 15.4477 10.3476 15.5577 10.3895 15.6603C10.4314 15.763 10.4933 15.8562 10.5717 15.9346C10.65 16.013 10.7432 16.075 10.8458 16.1169C10.9484 16.1588 11.0583 16.1798 11.1691 16.1787C11.2799 16.1776 11.3894 16.1543 11.4911 16.1103C11.5928 16.0664 11.6847 16.0025 11.7614 15.9225L15.0196 12.6624C15.1216 12.5846 15.2043 12.4841 15.2612 12.369C15.318 12.2539 15.3475 12.1272 15.3474 11.9988C15.3472 11.8704 15.3174 11.7437 15.2603 11.6288C15.2031 11.5138 15.1202 11.4136 15.018 11.3359L11.7614 8.07747C11.6838 7.99764 11.591 7.93419 11.4885 7.89086C11.3859 7.84753 11.2758 7.8252 11.1645 7.8252Z" fill="white"/>
</svg>
