<svg width="71" height="65" viewBox="0 0 71 65" fill="none" xmlns="http://www.w3.org/2000/svg">
<path d="M25.2709 52.8125H45.1166C51.6918 52.8125 57.0228 47.8522 57.0228 41.732V23.2659C57.0228 17.1478 51.6918 12.1875 45.1144 12.1875H25.2687C18.6935 12.1875 13.3625 17.1478 13.3625 23.268V41.7341C13.3625 47.8522 18.6935 52.8125 25.2709 52.8125Z" stroke="#4D565F" stroke-width="2" stroke-miterlimit="10"/>
<path d="M35.1926 22.3438C32.2978 22.3438 29.5215 23.4138 27.4745 25.3184C25.4276 27.2231 24.2776 29.8064 24.2776 32.5C24.2776 35.1936 25.4276 37.7769 27.4745 39.6816C29.5215 41.5862 32.2978 42.6562 35.1926 42.6562C38.0875 42.6562 40.8638 41.5862 42.9107 39.6816C44.9577 37.7769 46.1077 35.1936 46.1077 32.5C46.1077 29.8064 44.9577 27.2231 42.9107 25.3184C40.8638 23.4138 38.0875 22.3438 35.1926 22.3438Z" stroke="#4D565F" stroke-width="2" stroke-miterlimit="10"/>
<path d="M48.092 18.6509C47.5657 18.6509 47.061 18.8454 46.6889 19.1917C46.3167 19.5379 46.1077 20.0076 46.1077 20.4973C46.1077 20.987 46.3167 21.4566 46.6889 21.8029C47.061 22.1492 47.5657 22.3437 48.092 22.3437C48.6183 22.3437 49.123 22.1492 49.4952 21.8029C49.8673 21.4566 50.0764 20.987 50.0764 20.4973C50.0764 20.0076 49.8673 19.5379 49.4952 19.1917C49.123 18.8454 48.6183 18.6509 48.092 18.6509Z" fill="#4D565F"/>
</svg>
