<svg width="28" height="28" viewBox="0 0 28 28" fill="none" xmlns="http://www.w3.org/2000/svg">
<path d="M8.31875 26.5H19.6825C23.4475 26.5 26.5 23.4475 26.5 19.6813V8.3175C26.5 4.5525 23.4475 1.5 19.6813 1.5H8.3175C4.5525 1.5 1.5 4.5525 1.5 8.31875V19.6825C1.5 23.4475 4.5525 26.5 8.31875 26.5Z" stroke="white" stroke-width="2" stroke-miterlimit="10"/>
<path d="M14 7.75C12.3424 7.75 10.7527 8.40848 9.58058 9.58058C8.40848 10.7527 7.75 12.3424 7.75 14C7.75 15.6576 8.40848 17.2473 9.58058 18.4194C10.7527 19.5915 12.3424 20.25 14 20.25C15.6576 20.25 17.2473 19.5915 18.4194 18.4194C19.5915 17.2473 20.25 15.6576 20.25 14C20.25 12.3424 19.5915 10.7527 18.4194 9.58058C17.2473 8.40848 15.6576 7.75 14 7.75Z" stroke="white" stroke-width="2" stroke-miterlimit="10"/>
<path d="M21.3863 5.47748C21.0849 5.47748 20.7959 5.59719 20.5828 5.81028C20.3697 6.02337 20.25 6.31238 20.25 6.61373C20.25 6.91508 20.3697 7.20409 20.5828 7.41718C20.7959 7.63027 21.0849 7.74998 21.3863 7.74998C21.6876 7.74998 21.9766 7.63027 22.1897 7.41718C22.4028 7.20409 22.5225 6.91508 22.5225 6.61373C22.5225 6.31238 22.4028 6.02337 22.1897 5.81028C21.9766 5.59719 21.6876 5.47748 21.3863 5.47748Z" fill="white"/>
</svg>
