<svg width="40" height="40" viewBox="0 0 40 40" fill="none" xmlns="http://www.w3.org/2000/svg">
<path d="M14.3187 32.5H25.6825C29.4475 32.5 32.5 29.4475 32.5 25.6813V14.3175C32.5 10.5525 29.4475 7.5 25.6813 7.5H14.3175C10.5525 7.5 7.5 10.5525 7.5 14.3187V25.6825C7.5 29.4475 10.5525 32.5 14.3187 32.5Z" stroke="#4D565F" stroke-width="2" stroke-miterlimit="10"/>
<path d="M20 13.75C18.3424 13.75 16.7527 14.4085 15.5806 15.5806C14.4085 16.7527 13.75 18.3424 13.75 20C13.75 21.6576 14.4085 23.2473 15.5806 24.4194C16.7527 25.5915 18.3424 26.25 20 26.25C21.6576 26.25 23.2473 25.5915 24.4194 24.4194C25.5915 23.2473 26.25 21.6576 26.25 20C26.25 18.3424 25.5915 16.7527 24.4194 15.5806C23.2473 14.4085 21.6576 13.75 20 13.75Z" stroke="#4D565F" stroke-width="2" stroke-miterlimit="10"/>
<path d="M27.3863 11.4775C27.0849 11.4775 26.7959 11.5972 26.5828 11.8103C26.3697 12.0234 26.25 12.3124 26.25 12.6137C26.25 12.9151 26.3697 13.2041 26.5828 13.4172C26.7959 13.6303 27.0849 13.75 27.3863 13.75C27.6876 13.75 27.9766 13.6303 28.1897 13.4172C28.4028 13.2041 28.5225 12.9151 28.5225 12.6137C28.5225 12.3124 28.4028 12.0234 28.1897 11.8103C27.9766 11.5972 27.6876 11.4775 27.3863 11.4775Z" fill="#4D565F"/>
</svg>
