<svg width="54" height="56" viewBox="0 0 54 56" fill="none" xmlns="http://www.w3.org/2000/svg">
<path d="M29.1341 0.799805C27.0301 0.799805 25.0122 1.63564 23.5244 3.12342C22.0366 4.61121 21.2008 6.62909 21.2008 8.73314C21.2008 10.8372 22.0366 12.8551 23.5244 14.3429C25.0122 15.8306 27.0301 16.6665 29.1341 16.6665C31.2382 16.6665 33.256 15.8306 34.7438 14.3429C36.2316 12.8551 37.0674 10.8372 37.0674 8.73314C37.0674 6.62909 36.2316 4.61121 34.7438 3.12342C33.256 1.63564 31.2382 0.799805 29.1341 0.799805V0.799805ZM9.86745 9.86647C8.06398 9.86647 6.33437 10.5829 5.05912 11.8581C3.78387 13.1334 3.06745 14.863 3.06745 16.6665C3.06745 18.4699 3.78387 20.1996 5.05912 21.4748C6.33437 22.75 8.06398 23.4665 9.86745 23.4665C11.6709 23.4665 13.4005 22.75 14.6758 21.4748C15.951 20.1996 16.6674 18.4699 16.6674 16.6665C16.6674 14.863 15.951 13.1334 14.6758 11.8581C13.4005 10.5829 11.6709 9.86647 9.86745 9.86647ZM46.1341 14.3998C45.533 14.3998 44.9564 14.6386 44.5313 15.0637C44.1063 15.4888 43.8674 16.0653 43.8674 16.6665C43.8674 17.2676 44.1063 17.8442 44.5313 18.2692C44.9564 18.6943 45.533 18.9331 46.1341 18.9331C46.7353 18.9331 47.3118 18.6943 47.7369 18.2692C48.162 17.8442 48.4008 17.2676 48.4008 16.6665C48.4008 16.0653 48.162 15.4888 47.7369 15.0637C47.3118 14.6386 46.7353 14.3998 46.1341 14.3998ZM50.6674 25.1665C49.916 25.1665 49.1953 25.465 48.664 25.9963C48.1326 26.5277 47.8341 27.2484 47.8341 27.9998C47.8341 28.7513 48.1326 29.4719 48.664 30.0033C49.1953 30.5346 49.916 30.8331 50.6674 30.8331C51.4189 30.8331 52.1396 30.5346 52.6709 30.0033C53.2023 29.4719 53.5008 28.7513 53.5008 27.9998C53.5008 27.2484 53.2023 26.5277 52.6709 25.9963C52.1396 25.465 51.4189 25.1665 50.6674 25.1665ZM6.46745 27.9998C4.96455 27.9998 3.52322 28.5968 2.46051 29.6595C1.3978 30.7222 0.800781 32.1636 0.800781 33.6665C0.800781 35.1694 1.3978 36.6107 2.46051 37.6734C3.52322 38.7361 4.96455 39.3331 6.46745 39.3331C7.97034 39.3331 9.41168 38.7361 10.4744 37.6734C11.5371 36.6107 12.1341 35.1694 12.1341 33.6665C12.1341 32.1636 11.5371 30.7222 10.4744 29.6595C9.41168 28.5968 7.97034 27.9998 6.46745 27.9998ZM46.1341 37.0665C44.9318 37.0665 43.7787 37.5441 42.9286 38.3943C42.0784 39.2444 41.6008 40.3975 41.6008 41.5998C41.6008 42.8021 42.0784 43.9552 42.9286 44.8054C43.7787 45.6555 44.9318 46.1331 46.1341 46.1331C47.3364 46.1331 48.4895 45.6555 49.3397 44.8054C50.1898 43.9552 50.6674 42.8021 50.6674 41.5998C50.6674 40.3975 50.1898 39.2444 49.3397 38.3943C48.4895 37.5441 47.3364 37.0665 46.1341 37.0665ZM16.6674 43.8665C15.4651 43.8665 14.3121 44.3441 13.4619 45.1943C12.6117 46.0444 12.1341 47.1975 12.1341 48.3998C12.1341 49.6021 12.6117 50.7552 13.4619 51.6054C14.3121 52.4555 15.4651 52.9331 16.6674 52.9331C17.8698 52.9331 19.0228 52.4555 19.873 51.6054C20.7232 50.7552 21.2008 49.6021 21.2008 48.3998C21.2008 47.1975 20.7232 46.0444 19.873 45.1943C19.0228 44.3441 17.8698 43.8665 16.6674 43.8665ZM32.5341 46.1331C31.3318 46.1331 30.1787 46.6108 29.3286 47.4609C28.4784 48.3111 28.0008 49.4642 28.0008 50.6665C28.0008 51.8688 28.4784 53.0219 29.3286 53.872C30.1787 54.7222 31.3318 55.1998 32.5341 55.1998C33.7364 55.1998 34.8895 54.7222 35.7397 53.872C36.5898 53.0219 37.0674 51.8688 37.0674 50.6665C37.0674 49.4642 36.5898 48.3111 35.7397 47.4609C34.8895 46.6108 33.7364 46.1331 32.5341 46.1331Z" fill="#00A755"/>
</svg>
