<svg width="80" height="24" viewBox="0 0 80 24" fill="none" xmlns="http://www.w3.org/2000/svg">
<path d="M8.87224 2.52399L0.74793 16.0738C-1.33864 19.5277 1.19188 24 5.23184 24H21.4805C25.5648 24 28.0953 19.572 25.9644 16.0738L17.8844 2.52399C15.8423 -0.841328 10.9144 -0.841328 8.87224 2.52399ZM16.9078 3.14391L25.0765 16.6937C26.2307 18.5978 24.8545 21.0775 22.5903 21.0775H6.25292C3.98877 21.0775 2.61253 18.6421 3.7668 16.6937L11.9355 3.14391C13.0898 1.28413 15.7979 1.28413 16.9078 3.14391Z" fill="#DCAE6B"/>
<path d="M13.6664 5.978L8.25019 14.9669C7.40668 16.3839 8.42777 18.1551 10.026 18.1551H20.8584C22.501 18.1551 23.4777 16.3839 22.6342 15.0112L17.2624 5.978C16.4633 4.64959 14.4655 4.64959 13.6664 5.978ZM17.218 8.10346L20.7696 13.9928C21.0804 14.5241 20.7252 15.2326 20.0593 15.2326H12.9561C12.3345 15.2326 11.935 14.5684 12.2458 13.9928L15.7974 8.10346C16.1525 7.57209 16.9072 7.57209 17.218 8.10346Z" fill="#DCAE6B"/>
<path d="M47.1033 13.0627C47.5916 13.7269 47.858 14.5239 47.858 15.4538C47.858 16.7823 47.3253 17.845 46.3042 18.5535C45.2387 19.262 43.7293 19.6162 41.7315 19.6162H33.7404V4.29517H41.2431C43.1077 4.29517 44.5728 4.64941 45.5495 5.3579C46.5705 6.06638 47.0589 7.04055 47.0589 8.28041C47.0589 9.03317 46.8813 9.69738 46.5262 10.273C46.171 10.8487 45.6826 11.3358 45.0167 11.6457C45.9046 11.9114 46.6149 12.3985 47.1033 13.0627ZM37.292 6.95199V10.583H40.8436C41.7315 10.583 42.3974 10.4501 42.8414 10.1402C43.2853 9.83022 43.5073 9.38742 43.5073 8.76749C43.5073 8.14756 43.2853 7.70476 42.8414 7.43908C42.3974 7.12911 41.7315 6.99627 40.8436 6.99627H37.292V6.95199ZM43.5517 16.4723C44.04 16.1623 44.262 15.6752 44.262 15.0553C44.262 13.7712 43.3297 13.1513 41.4207 13.1513H37.292V16.9594H41.4207C42.353 16.9594 43.0633 16.7823 43.5517 16.4723Z" fill="#2EAB62"/>
<path d="M53.6294 18.8635C52.342 18.1993 51.3653 17.2251 50.655 16.0295C49.9446 14.834 49.5895 13.4613 49.5895 11.9557C49.5895 10.4502 49.9446 9.07751 50.655 7.88194C51.3653 6.68637 52.3864 5.75648 53.6294 5.04799C54.9169 4.38378 56.3375 4.02954 57.8914 4.02954C59.2232 4.02954 60.4219 4.25094 61.4874 4.73803C62.5529 5.22511 63.4852 5.88932 64.1955 6.73065L61.9313 8.81183C60.9102 7.61626 59.6228 6.99633 58.0689 6.99633C57.1366 6.99633 56.2487 7.21773 55.5384 7.61626C54.7837 8.01478 54.2066 8.59043 53.807 9.34319C53.4075 10.096 53.1855 10.9373 53.1855 11.8672C53.1855 12.7971 53.4075 13.6827 53.807 14.3912C54.2066 15.1439 54.7837 15.7196 55.5384 16.1181C56.2931 16.5166 57.1366 16.738 58.0689 16.738C59.6228 16.738 60.9102 16.1181 61.9313 14.9225L64.1955 17.0037C63.4852 17.8893 62.5529 18.5535 61.4874 19.0406C60.4219 19.5277 59.1788 19.7491 57.847 19.7491C56.3375 19.8819 54.9169 19.5277 53.6294 18.8635Z" fill="#2EAB62"/>
<path d="M69.3897 18.8635C68.1022 18.1993 67.1255 17.2251 66.4152 16.0295C65.7049 14.834 65.3497 13.4613 65.3497 11.9557C65.3497 10.4502 65.7049 9.07751 66.4152 7.88194C67.1255 6.68637 68.1466 5.75648 69.3897 5.04799C70.6772 4.38378 72.0978 4.02954 73.6516 4.02954C74.9835 4.02954 76.1821 4.25094 77.2476 4.73803C78.3131 5.22511 79.2454 5.88932 79.9557 6.73065L77.6916 8.81183C76.6705 7.61626 75.383 6.99633 73.8292 6.99633C72.8969 6.99633 72.009 7.21773 71.2987 7.61626C70.544 8.01478 69.9668 8.59043 69.5673 9.34319C69.1677 10.096 68.9457 10.9373 68.9457 11.8672C68.9457 12.7971 69.1677 13.6827 69.5673 14.3912C69.9668 15.1439 70.5884 15.7196 71.2987 16.1181C72.0534 16.5166 72.8969 16.738 73.8292 16.738C75.383 16.738 76.6705 16.1181 77.6916 14.9225L79.9557 17.0037C79.2454 17.8893 78.3131 18.5535 77.2476 19.0406C76.1821 19.5277 74.9391 19.7491 73.6072 19.7491C72.0978 19.8819 70.6772 19.5277 69.3897 18.8635Z" fill="#2EAB62"/>
</svg>
