<svg width="16" height="20" viewBox="0 0 16 20" fill="none" xmlns="http://www.w3.org/2000/svg">
<path d="M0 0V20H15.96V5.83438L9.83391 0H0ZM0.84 0.8H9.24V6.4H15.12V19.2H0.84V0.8ZM10.08 1.36563L14.5261 5.6H10.08V1.36563ZM4.75289 9.79688C4.41656 9.79688 4.1032 9.83125 3.86039 9.88594V14.4H4.61672V12.6109C4.68891 12.6187 4.75289 12.6188 4.83164 12.6188C5.23852 12.6188 5.70281 12.4625 5.98828 12.1422C6.20976 11.8969 6.34594 11.5844 6.34594 11.1234C6.34594 10.7281 6.21633 10.375 5.95875 10.1438C5.67328 9.88594 5.25984 9.79688 4.75289 9.79688ZM7.79461 9.79688C7.46648 9.79688 7.15969 9.83125 6.9382 9.88594V14.3859C7.11047 14.4125 7.37461 14.4328 7.63875 14.4328C8.25891 14.4328 8.73141 14.2844 9.05133 13.9703C9.41555 13.6313 9.67312 13.0125 9.67312 12.0266C9.67312 11.1078 9.43031 10.5109 9.03656 10.1766C8.75109 9.925 8.35078 9.79688 7.79461 9.79688ZM10.2933 9.81719V14.4H11.0578V12.4219H12.1931V11.8172H11.0578V10.45H12.2719V9.81719H10.2933ZM7.91602 10.3813C8.58047 10.3813 8.88562 10.9797 8.88562 12.0203C8.88562 13.4141 8.4082 13.8359 7.87992 13.8359C7.8307 13.8359 7.75851 13.8359 7.69453 13.8219V10.4016C7.75851 10.3891 7.83727 10.3813 7.91602 10.3813ZM4.88086 10.3875C5.39437 10.3875 5.57977 10.7484 5.57977 11.1766C5.57977 11.7 5.3025 12.0266 4.80375 12.0266C4.725 12.0266 4.67414 12.0266 4.61672 12.0125V10.4219C4.6807 10.4016 4.77422 10.3875 4.88086 10.3875Z" fill="#000D1A"/>
</svg>
