<svg width="20" height="24" viewBox="0 0 20 24" fill="none" xmlns="http://www.w3.org/2000/svg">
<path d="M4.46184 0C2.42819 0 0.769531 1.65865 0.769531 3.69231V20.3077C0.769531 22.3413 2.42819 24 4.46184 24H15.5388C17.5724 24 19.2311 22.3413 19.2311 20.3077V7.38462C19.2311 6.40385 18.3332 5.47356 16.7215 3.89423C16.4979 3.67428 16.2563 3.42909 16.0291 3.20192C15.802 2.97476 15.5568 2.76202 15.3368 2.53846C13.7575 0.926682 12.8272 0 11.8465 0H4.46184ZM4.46184 1.84615H11.183C11.8501 2.01563 11.8465 2.81611 11.8465 3.63462V6.46154C11.8465 6.96995 12.2611 7.38462 12.7695 7.38462H15.5388C16.4582 7.38462 17.3849 7.38822 17.3849 8.30769V20.3077C17.3849 21.3281 16.5592 22.1538 15.5388 22.1538H4.46184C3.44141 22.1538 2.61569 21.3281 2.61569 20.3077V3.69231C2.61569 2.67187 3.44141 1.84615 4.46184 1.84615ZM9.30799 8.30769C8.90775 8.30769 8.50391 8.52404 8.32722 8.85577C8.15054 9.1875 8.13612 9.55889 8.18299 9.95192C8.25511 10.5613 8.60487 11.3077 8.96184 12.0288C8.77434 12.6995 8.67698 13.3017 8.38492 14.0192C8.02794 14.899 7.59525 15.595 7.17338 16.3269C6.61809 16.5938 5.93299 16.8317 5.52915 17.1058C5.08924 17.405 4.73227 17.6683 4.54838 18.0577C4.45823 18.2524 4.42939 18.5156 4.51953 18.75C4.60968 18.9844 4.80078 19.1575 5.00992 19.2692C5.4354 19.4964 5.90775 19.3558 6.27915 19.0962C6.65054 18.8365 7.00391 18.4435 7.34645 17.9712C7.52674 17.7188 7.689 17.3185 7.86568 17.0192C8.41737 16.7668 8.79597 16.4928 9.42338 16.2692C10.296 15.9591 11.0892 15.8438 11.9041 15.6635C12.564 16.125 13.2527 16.4712 14.0099 16.4712C14.4426 16.4712 14.7743 16.4675 15.0772 16.2981C15.3801 16.1286 15.5388 15.7392 15.5388 15.4327C15.5388 15.1875 15.445 14.9387 15.2791 14.7692C15.1133 14.5998 14.8897 14.4808 14.6734 14.4231C14.2407 14.3041 13.7575 14.3293 13.1734 14.3942C12.8741 14.4267 12.4666 14.5889 12.1349 14.6538C12.0484 14.5853 11.9618 14.6142 11.8753 14.5385C11.1578 13.9038 10.4979 13.0421 10.0003 12.1731C9.96424 12.1082 9.97867 12.0649 9.94261 12C10.0652 11.524 10.2924 10.9724 10.3465 10.5577C10.415 10.0132 10.415 9.53005 10.2888 9.11539C10.2275 8.90986 10.1481 8.69351 9.97145 8.53846C9.79477 8.38341 9.54237 8.30769 9.30799 8.30769ZM9.19261 9.23077C9.20703 9.22356 9.23588 9.23077 9.30799 9.23077C9.35847 9.23077 9.32963 9.22356 9.33684 9.23077C9.34405 9.23798 9.39453 9.28125 9.42338 9.375C9.48107 9.5625 9.48468 9.9375 9.42338 10.4135C9.41977 10.4495 9.40174 10.518 9.39453 10.5577C9.32602 10.3305 9.1277 10.0132 9.10607 9.83654C9.07362 9.55168 9.1277 9.35337 9.16376 9.28846C9.18179 9.25601 9.17819 9.23798 9.19261 9.23077ZM9.59645 13.1538C10.0111 13.7921 10.4979 14.387 11.0388 14.9135C10.3825 15.0865 9.77314 15.1659 9.10607 15.4038C8.88972 15.4796 8.76713 15.5841 8.55799 15.6635C8.78155 15.2019 9.05198 14.8522 9.2503 14.3654C9.42338 13.9363 9.45222 13.5793 9.59645 13.1538ZM14.0676 15.2885C14.2299 15.2849 14.3561 15.2921 14.4426 15.3173C14.5544 15.3498 14.6049 15.393 14.6157 15.4038C14.6265 15.4147 14.6157 15.4002 14.6157 15.4327C14.6157 15.5697 14.6373 15.4796 14.6157 15.4904C14.5941 15.5012 14.3885 15.5481 14.0099 15.5481C13.8585 15.5481 13.6782 15.357 13.5195 15.3173C13.707 15.3065 13.9053 15.2921 14.0676 15.2885ZM6.30799 17.7404C6.11328 17.9675 5.90775 18.2416 5.75992 18.3462C5.53636 18.5048 5.48588 18.4832 5.44261 18.4615C5.39213 18.4363 5.41737 18.4327 5.41376 18.4327C5.46785 18.3425 5.6878 18.101 6.04838 17.8558C6.10607 17.8161 6.24309 17.78 6.30799 17.7404Z" fill="#4D565F"/>
</svg>
