<svg width="24" height="24" viewBox="0 0 24 24" fill="none" xmlns="http://www.w3.org/2000/svg">
<path d="M20.6954 20.2293L16.266 15.5452C17.3649 14.2134 17.984 12.5404 18.0211 10.8025C18.0582 9.06454 17.511 7.36577 16.4699 5.98684C15.4288 4.60791 13.9562 3.63134 12.2953 3.2185C10.6345 2.80566 8.8848 2.98126 7.33538 3.71627C5.78597 4.45128 4.52956 5.70173 3.77375 7.26099C3.01795 8.82025 2.80798 10.595 3.17855 12.292C3.54912 13.989 4.47804 15.5067 5.81183 16.5943C7.14562 17.6819 8.80445 18.2743 10.5142 18.2737C12.0554 18.2777 13.5597 17.7947 14.819 16.8914L19.2856 21.6105C19.3732 21.7113 19.4799 21.7931 19.5993 21.8508C19.7188 21.9086 19.8485 21.9411 19.9807 21.9466C20.1128 21.952 20.2447 21.9301 20.3684 21.8823C20.492 21.8345 20.6048 21.7618 20.7001 21.6685C20.7953 21.5752 20.871 21.4632 20.9225 21.3394C20.9741 21.2155 21.0004 21.0823 21 20.9479C20.9996 20.8134 20.9723 20.6804 20.92 20.5569C20.8677 20.4334 20.7913 20.3219 20.6954 20.2293ZM10.5142 4.98774C11.6126 4.98774 12.6863 5.31889 13.5996 5.93931C14.5129 6.55973 15.2247 7.44155 15.645 8.47327C16.0654 9.50499 16.1753 10.6403 15.9611 11.7355C15.7468 12.8308 15.2179 13.8369 14.4412 14.6265C13.6645 15.4162 12.675 15.9539 11.5977 16.1718C10.5204 16.3896 9.40375 16.2778 8.38898 15.8505C7.3742 15.4231 6.50686 14.6994 5.89662 13.7709C5.28639 12.8424 4.96068 11.7507 4.96068 10.634C4.96241 9.13706 5.54806 7.70193 6.58918 6.64343C7.6303 5.58493 9.04186 4.98949 10.5142 4.98774Z" fill="#4D565F"/>
</svg>
