<svg width="176" height="176" viewBox="0 0 176 176" fill="none" xmlns="http://www.w3.org/2000/svg">
<circle cx="88" cy="88" r="87.5" fill="white" stroke="#CCCFD1"/>
<path d="M88.0001 60.4445C72.3201 60.4445 59.5557 71.6089 59.5557 85.3333C59.5557 99.0578 72.3201 110.222 88.0001 110.222C90.9337 110.219 93.8529 109.812 96.6757 109.013L106.507 115.271C106.775 115.443 107.085 115.54 107.404 115.551C107.722 115.563 108.038 115.488 108.318 115.336C108.598 115.183 108.832 114.958 108.995 114.684C109.158 114.41 109.244 114.097 109.245 113.778V101.813C111.469 99.6794 113.244 97.1221 114.465 94.2919C115.687 91.4616 116.329 88.4157 116.356 85.3333C116.445 71.6089 103.68 60.4445 88.0001 60.4445ZM106.293 99.7511C106.115 99.9169 105.972 100.118 105.874 100.341C105.776 100.564 105.725 100.805 105.725 101.049V110.542L97.9379 105.582C97.7207 105.445 97.4763 105.356 97.2216 105.323C96.9668 105.289 96.7078 105.311 96.4623 105.387C93.7223 106.238 90.8693 106.669 88.0001 106.667C74.2757 106.667 63.1112 97.1022 63.1112 85.3333C63.1112 73.5645 74.2757 64 88.0001 64C101.725 64 112.889 73.5645 112.889 85.3333C112.848 88.0624 112.241 90.7532 111.106 93.2351C109.97 95.7171 108.332 97.936 106.293 99.7511Z" fill="#2991D6"/>
<path d="M100.444 83.5555H75.5556C75.0841 83.5555 74.6319 83.7428 74.2985 84.0762C73.9651 84.4096 73.7778 84.8618 73.7778 85.3333C73.7778 85.8048 73.9651 86.257 74.2985 86.5904C74.6319 86.9238 75.0841 87.1111 75.5556 87.1111H100.444C100.916 87.1111 101.368 86.9238 101.702 86.5904C102.035 86.257 102.222 85.8048 102.222 85.3333C102.222 84.8618 102.035 84.4096 101.702 84.0762C101.368 83.7428 100.916 83.5555 100.444 83.5555Z" fill="#2991D6"/>
<path d="M94.6668 92.4445H81.3334C80.8619 92.4445 80.4098 92.6318 80.0764 92.9652C79.743 93.2986 79.5557 93.7507 79.5557 94.2222C79.5557 94.6937 79.743 95.1459 80.0764 95.4793C80.4098 95.8127 80.8619 96 81.3334 96H94.6668C95.1383 96 95.5905 95.8127 95.9239 95.4793C96.2573 95.1459 96.4446 94.6937 96.4446 94.2222C96.4446 93.7507 96.2573 93.2986 95.9239 92.9652C95.5905 92.6318 95.1383 92.4445 94.6668 92.4445Z" fill="#2991D6"/>
<path d="M76.0534 78.2222H99.9467C100.418 78.2222 100.87 78.0349 101.204 77.7015C101.537 77.3681 101.725 76.916 101.725 76.4445C101.725 75.973 101.537 75.5208 101.204 75.1874C100.87 74.854 100.418 74.6667 99.9467 74.6667H76.0534C75.5819 74.6667 75.1297 74.854 74.7963 75.1874C74.4629 75.5208 74.2756 75.973 74.2756 76.4445C74.2756 76.916 74.4629 77.3681 74.7963 77.7015C75.1297 78.0349 75.5819 78.2222 76.0534 78.2222Z" fill="#2991D6"/>
<circle cx="160" cy="141" r="15.5" fill="#6CB4E3" stroke="#2991D6"/>
<path d="M160.586 147H159.32V138.859C159.32 138.182 159.341 137.542 159.383 136.938C159.273 137.047 159.151 137.161 159.016 137.281C158.88 137.401 158.26 137.909 157.156 138.805L156.469 137.914L159.492 135.578H160.586V147Z" fill="white"/>
</svg>
