<svg width="24" height="24" viewBox="0 0 24 24" fill="none" xmlns="http://www.w3.org/2000/svg">
<path d="M11.99 2C6.47 2 2 6.48 2 12C2 17.52 6.47 22 11.99 22C17.52 22 22 17.52 22 12C22 6.48 17.52 2 11.99 2ZM11.78 20.5C7.36 20.5 3.5 16.42 3.5 12C3.5 7.58 7.57 3.5 11.99 3.5C16.41 3.5 20.5 7.58 20.5 12C20.5 16.42 16.2 20.5 11.78 20.5ZM11.78 7H11.72C11.32 7 11 7.32 11 7.72V12.44C11 12.79 11.18 13.12 11.49 13.3L15.64 15.79C15.98 15.99 16.42 15.89 16.62 15.55C16.6702 15.469 16.7036 15.3788 16.7182 15.2846C16.7328 15.1905 16.7283 15.0943 16.705 15.002C16.6817 14.9096 16.64 14.8229 16.5824 14.7469C16.5249 14.671 16.4526 14.6074 16.37 14.56L12.5 12.26V7.72C12.5 7.32 12.18 7 11.78 7Z" fill="#80868C"/>
</svg>
