<svg width="376" height="195" viewBox="0 0 376 195" fill="none" xmlns="http://www.w3.org/2000/svg">
<rect width="376" height="195" fill="#FAFAFA"/>
<path fill-rule="evenodd" clip-rule="evenodd" d="M217.372 85.1686V67.4206H199.77L187.497 55L175.223 67.2443H157.448V84.9923L145 97.4108L157.624 109.831V127.579H175.227L187.501 140L199.77 127.579H217.548V110.008L230 97.5871L217.372 85.1686ZM155.857 101.138L153.012 98.2969C152.905 98.1929 152.821 98.0687 152.763 97.9315C152.705 97.7942 152.675 97.6468 152.675 97.4979C152.675 97.3489 152.705 97.2015 152.763 97.0643C152.821 96.9271 152.905 96.8028 153.012 96.6989L156.034 93.6814C156.119 93.6018 156.229 93.5523 156.345 93.5404C156.461 93.5284 156.578 93.5546 156.679 93.615C156.779 93.6755 156.857 93.7669 156.9 93.8754C156.944 93.984 156.951 94.1038 156.921 94.2169L157.097 100.605C157.097 101.314 156.386 101.493 155.857 101.138ZM206.886 72.5674H210.976C211.507 72.5674 212.218 72.9244 212.038 73.6299V77.8799C212.038 78.4133 211.326 78.5918 211.148 78.2348L206.523 73.6214C206.42 73.549 206.343 73.4452 206.303 73.3254C206.264 73.2056 206.265 73.0763 206.305 72.9567C206.345 72.8372 206.422 72.7339 206.526 72.6622C206.63 72.5905 206.754 72.5542 206.88 72.5589L206.886 72.5674ZM184.121 66.0033L186.966 63.1643C187.501 62.8094 188.21 62.633 188.565 63.1643L191.587 66.0033C191.667 66.1001 191.718 66.2183 191.733 66.3436C191.747 66.4688 191.725 66.5956 191.669 66.7083C191.612 66.8211 191.524 66.915 191.415 66.9785C191.307 67.042 191.182 67.0723 191.056 67.0658H184.656C184.528 67.0785 184.399 67.0522 184.286 66.9901C184.173 66.9281 184.082 66.8333 184.024 66.7183C183.966 66.6033 183.944 66.4734 183.961 66.3457C183.979 66.2181 184.034 66.0987 184.121 66.0033ZM162.425 77.7141V73.8084C162.601 73.1008 162.96 72.5674 163.669 72.5674H167.759C167.887 72.5546 168.016 72.581 168.129 72.643C168.242 72.705 168.333 72.7998 168.391 72.9148C168.449 73.0298 168.471 73.1598 168.454 73.2874C168.436 73.415 168.381 73.5344 168.294 73.6299L163.672 78.2369C163.562 78.3178 163.432 78.3687 163.297 78.3844C163.161 78.4001 163.024 78.3802 162.898 78.3266C162.772 78.2729 162.663 78.1875 162.58 78.0786C162.498 77.9697 162.445 77.8411 162.427 77.7056L162.425 77.7141ZM168.116 122.609H164.026C163.885 122.615 163.745 122.591 163.613 122.54C163.482 122.488 163.363 122.41 163.263 122.31C163.163 122.211 163.085 122.091 163.034 121.96C162.982 121.828 162.959 121.688 162.964 121.547L162.788 117.467C162.776 117.339 162.804 117.21 162.866 117.098C162.928 116.986 163.023 116.895 163.138 116.838C163.252 116.78 163.382 116.759 163.509 116.776C163.636 116.794 163.755 116.849 163.85 116.935L168.649 121.547C169.004 121.901 168.649 122.609 168.116 122.609ZM191.049 128.823L188.204 131.664C188.11 131.788 187.989 131.888 187.85 131.958C187.711 132.027 187.558 132.063 187.402 132.063C187.247 132.063 187.094 132.027 186.955 131.958C186.815 131.888 186.694 131.788 186.601 131.664L183.588 128.812C183.509 128.728 183.455 128.624 183.431 128.512C183.407 128.4 183.413 128.283 183.45 128.174C183.486 128.066 183.552 127.969 183.639 127.894C183.726 127.819 183.831 127.769 183.944 127.749H190.527C190.655 127.737 190.784 127.764 190.896 127.826C191.008 127.888 191.099 127.983 191.157 128.098C191.215 128.213 191.236 128.343 191.219 128.47C191.202 128.597 191.146 128.717 191.06 128.812L191.049 128.823ZM194.252 121.723H180.024C179.097 121.847 178.153 121.733 177.282 121.392C176.41 121.05 175.64 120.493 175.043 119.772L164.738 109.474C163.956 108.805 163.352 107.953 162.979 106.993C162.607 106.034 162.478 104.997 162.603 103.975V89.9499C162.586 89.0341 162.751 88.124 163.087 87.272C163.423 86.4201 163.924 85.6431 164.561 84.9859L175.41 74.1484C176.002 73.5928 176.702 73.1646 177.466 72.8905C178.23 72.6164 179.042 72.502 179.852 72.5546H194.432C195.317 72.4241 196.22 72.5182 197.059 72.8282C197.898 73.1383 198.646 73.6543 199.233 74.329L209.727 84.7989C210.416 85.3884 210.964 86.1244 211.331 86.9532C211.698 87.7819 211.876 88.6823 211.851 89.5886V104.85C211.975 105.742 211.841 106.651 211.465 107.469C211.088 108.287 210.485 108.98 209.727 109.466L199.768 119.583C199.074 120.339 198.214 120.924 197.256 121.292C196.299 121.661 195.269 121.803 194.247 121.708L194.252 121.723ZM212.208 121.013C212.033 121.542 211.675 122.254 210.965 122.254H206.88C206.752 122.266 206.624 122.239 206.512 122.176C206.4 122.114 206.309 122.019 206.252 121.904C206.194 121.79 206.173 121.66 206.19 121.533C206.208 121.406 206.263 121.287 206.349 121.192L210.972 116.576C211.057 116.465 211.173 116.383 211.305 116.339C211.438 116.295 211.58 116.293 211.714 116.331C211.848 116.37 211.968 116.448 212.057 116.555C212.146 116.662 212.201 116.794 212.214 116.933V121.015L212.208 121.013ZM218.612 101.14C218.259 101.493 217.55 101.14 217.72 100.783V94.2169C217.542 93.505 218.434 93.3286 218.782 93.6814L221.627 96.5225C221.98 97.0538 222.158 97.7635 221.627 98.1163L218.603 101.136L218.612 101.14Z" fill="#DAB177"/>
</svg>
