<svg width="376" height="195" viewBox="0 0 376 195" fill="none" xmlns="http://www.w3.org/2000/svg">
<rect width="376" height="195" fill="#FBDAE6"/>
<path d="M160.136 96.5779C160.729 94.5009 160.565 92.6186 160.423 90.6452C160.21 87.9964 159.959 84.9659 161.282 80.4124C161.323 80.2302 161.299 79.9953 161.137 79.8633C160.974 79.7314 160.788 79.6611 160.587 79.7406C160.501 79.7788 158.199 80.6036 155.564 82.2628C152.065 84.5132 149.719 87.241 148.735 90.1584C147.46 94.0246 148.568 96.9691 149.548 99.5407C150.362 101.654 151.06 103.513 150.506 105.675C150.473 105.648 150.47 105.619 150.441 105.622C147.828 102.265 143.595 99.1006 140.234 96.8869C141.326 96.4804 144 95.203 145.869 91.6034C147.19 89.0675 147.808 86.0683 147.887 81.6101C147.922 79.6189 148.417 76.009 148.414 75.9797C148.452 75.7682 148.31 75.5451 148.15 75.4425C147.958 75.3135 147.721 75.3372 147.527 75.4755C147.305 75.646 141.636 80.0133 139.967 82.9401C138.215 85.9346 137.845 88.4342 138.474 92.5246C138.725 94.1014 138.89 95.4199 138.989 96.0923C137.297 95.0163 135.969 94.2893 135.431 93.9874C135.607 93.3764 135.97 91.9751 135.934 90.169C135.856 87.9518 135.164 84.6985 132.168 81.6767C129.777 79.3063 126.474 77.9471 122.574 77.7457C119.664 77.5931 117.452 78.1417 117.367 78.18C117.192 78.2272 117.057 78.3595 116.983 78.5152C116.91 78.6709 116.928 78.8471 117.035 79.0144C118.033 80.6051 118.552 82.7485 119.064 84.8331C119.728 87.5254 120.404 90.3353 122.172 92.1454C124.309 94.3634 127.23 95.4939 130.595 95.4228C131.044 95.437 131.457 95.3955 131.841 95.3569C133.111 95.2292 134.1 94.9815 134.62 94.8106C134.652 94.837 134.682 94.834 134.685 94.8634C134.747 94.8868 137.214 96.241 140.261 98.3083C140.107 98.2644 139.921 98.1941 139.734 98.1238C136.426 97.0025 133.306 96.8413 130.705 97.6664C127.96 98.5357 126.647 99.706 125.362 100.844C123.722 102.314 122.029 103.849 116.983 104.979C116.779 105.029 116.614 105.164 116.576 105.376C116.538 105.587 116.589 105.79 116.781 105.919C116.846 105.972 118.728 107.444 121.484 108.71C124.586 110.149 127.571 110.739 130.229 110.472C130.731 110.421 131.23 110.341 131.697 110.235C135.337 109.365 136.656 107.096 137.822 105.08C139.068 102.967 140.163 101.137 143.705 101.048C143.793 101.039 143.882 101.03 143.965 100.962C146.074 102.619 148.113 104.461 149.588 106.331C150.379 107.349 151.193 108.305 151.975 109.236C152.147 109.456 152.348 109.673 152.52 109.893C151.846 109.723 150.309 109.284 148.459 108.699C145.875 107.95 141.356 108.404 138.046 110.754C134.937 113.025 130.406 120.63 130.199 120.947C130.07 121.138 130.094 121.373 130.23 121.538C130.334 121.675 130.523 121.775 130.73 121.754C130.759 121.751 130.789 121.748 130.789 121.748C130.848 121.742 135.576 120.704 137.685 120.61C141.221 120.463 144.259 119.831 146.659 118.789C148.631 117.938 150.182 116.773 151.323 115.383C152.911 113.414 153.194 111.516 153.24 110.8C153.891 111.624 154.543 112.449 155.2 113.332C155.203 113.361 155.206 113.391 155.206 113.391C155.251 113.535 155.352 113.643 155.479 113.719C158.222 117.478 160.855 122.198 163.024 129.961C163.11 130.219 163.335 130.375 163.601 130.348C163.63 130.345 163.66 130.342 163.689 130.339C163.979 130.251 164.158 129.965 164.069 129.678C161.948 122.088 159.371 117.333 156.746 113.562C157.266 113.391 157.983 113.112 158.741 112.65C160.146 111.797 161.968 110.071 162.738 106.819C162.973 105.905 163.453 103.899 163.453 103.899C163.494 103.717 163.447 103.544 163.343 103.406C163.21 103.271 163.024 103.2 162.846 103.218C162.699 103.233 159.678 103.744 156.997 106.12C155.767 107.223 155.067 108.836 154.997 110.771C154.983 110.921 154.995 111.038 154.981 111.188C154.261 110.282 153.544 109.404 152.828 108.527C152.315 107.896 151.77 107.239 151.225 106.581C151.482 106.467 158.364 102.868 160.136 96.5779ZM144.896 91.1375C143.801 93.2649 142.374 94.4764 141.365 95.1118C141.002 95.3559 140.689 95.5061 140.406 95.6532C140.432 95.6209 140.429 95.5915 140.429 95.5915C141.254 88.2104 146.043 79.6297 147.109 77.8019C146.993 79.0002 146.848 80.4982 146.812 81.5995C146.681 87.0123 145.767 89.4479 144.896 91.1375ZM140.922 83.5265C141.962 81.731 144.722 79.2582 146.536 77.7408C145.32 79.8508 140.922 87.8877 139.953 95.0164C139.851 94.3146 139.731 93.4366 139.566 92.4148C138.932 88.5623 139.271 86.3329 140.922 83.5265ZM122.564 78.8147C126.225 79.0105 129.214 80.2232 131.408 82.4059C133.634 84.615 134.764 87.2011 134.856 90.129C134.909 91.5181 134.672 92.699 134.496 93.31C132.759 90.6364 129.595 87.4239 125.1 83.7518C122.301 81.4816 119.76 79.6899 118.766 79.0185C119.678 78.8971 121.007 78.7635 122.564 78.8147ZM130.513 94.3333C127.443 94.3748 124.895 93.3848 122.929 91.3869C121.363 89.7939 120.702 87.1309 120.112 84.5794C119.695 82.8412 119.278 81.1031 118.554 79.5737C120.903 81.2364 130.506 88.163 134.101 93.8244C133.431 93.9807 132.12 94.2905 130.513 94.3333ZM126.099 101.63C127.326 100.498 128.502 99.4602 131.018 98.6734C134.602 97.5419 138.51 98.6919 140.943 99.7231C137.735 99.8675 135.51 101.159 132.294 102.966C131.898 103.183 131.503 103.401 131.051 103.654C126.507 106.188 120.748 105.906 118.58 105.709C122.902 104.503 124.595 102.968 126.099 101.63ZM136.87 104.523C135.671 106.513 134.585 108.432 131.408 109.166C126.686 110.264 121.724 107.855 119.175 106.272C120.348 106.362 122.114 106.421 124.064 106.226C126.397 105.991 128.993 105.404 131.306 104.103C131.728 103.853 132.153 103.633 132.548 103.415C135.821 101.573 138.105 100.275 141.476 100.263C138.978 100.929 137.912 102.757 136.87 104.523ZM138.677 111.67C140.427 110.396 142.597 109.733 144.605 109.531C145.934 109.398 147.166 109.481 148.121 109.771C149.383 110.149 150.551 110.476 151.352 110.722C146.863 111.47 141.922 113.925 138.455 115.905C135.555 117.591 133.212 119.191 132.127 119.953C133.643 117.575 136.568 113.217 138.677 111.67ZM150.426 114.791C148.066 117.668 143.667 119.297 137.638 119.577C136.333 119.649 134.133 120.018 132.523 120.328C133.606 119.537 135.922 117.969 138.766 116.318C145.164 112.649 149.545 111.438 152.168 111.115C152.13 111.326 152.095 111.567 152.004 111.843C151.751 112.581 151.325 113.662 150.426 114.791ZM158.199 111.725C157.612 112.111 157.036 112.317 156.605 112.479C157.202 111.024 158.448 109.208 160.204 107.133C160.841 106.357 161.486 105.669 161.999 105.143C161.876 105.689 161.753 106.235 161.642 106.603C161.103 108.912 159.937 110.631 158.199 111.725ZM156.046 110.814C156.117 109.175 156.67 107.874 157.681 106.971C159.076 105.733 160.617 105.044 161.685 104.7C160.153 106.337 157.29 109.562 156.105 112.262C156.063 111.851 156.015 111.381 156.046 110.814ZM159.33 90.755C159.472 92.7284 159.644 94.4022 159.096 96.3265C157.916 100.539 154.103 103.504 152.064 104.865C154.33 101.938 154.4 100.299 154.563 96.0699C154.606 95.3239 154.637 94.4604 154.659 93.5089C154.943 87.8434 158.903 82.8172 159.835 81.7149C158.921 85.6043 159.109 88.3148 159.33 90.755ZM149.761 90.5596C151.358 85.7709 156.572 82.7845 159.276 81.5041C158.135 82.8944 154.346 87.8441 154.059 93.4801C154.008 94.4347 153.974 95.2688 153.964 96.0412C153.833 100 153.759 101.61 151.767 104.302C151.793 102.519 151.185 100.949 150.534 99.2636C149.584 96.689 148.598 94.0586 149.761 90.5596Z" fill="#FF9B19"/>
<path d="M199.136 125.855C199.136 125.855 192.384 68.6492 192.108 66.2999C191.48 61.2516 186.727 61.3113 186.727 61.3113L161.36 64.3177C161.36 64.3177 157.316 64.6815 155.005 67.8319C152.964 70.6347 154.105 74.9235 154.105 74.9235C154.105 74.9235 163.908 128.121 165.574 132.909C167.239 137.697 170.188 137.198 173.216 136.702C176.243 136.207 192.684 132.934 195.92 132.52C200.282 131.96 199.136 125.855 199.136 125.855Z" fill="#FFE7E6"/>
<path d="M201.545 130.454C201.545 130.454 201.09 126.728 200.371 121.03L199.864 116.829C199.236 111.781 193.647 66.5293 193.319 63.9729C192.596 58.3536 187.238 58.3897 187.238 58.3897L158.708 61.6249C158.708 61.6249 154.151 62.0014 151.569 65.4994C149.276 68.6036 150.595 73.3892 150.595 73.3892C150.595 73.3892 161.299 130.943 163.203 136.277C165.108 141.612 168.237 141.13 171.652 140.6C175.068 140.07 195.322 135.461 198.969 135.022C202.615 134.582 201.545 130.454 201.545 130.454ZM195.448 132.362C192.213 132.91 176.234 136.231 173.207 136.726C170.179 137.221 167.23 137.721 165.564 132.933C163.908 128.122 154.068 74.8824 154.068 74.8824C154.068 74.8824 152.927 70.5936 154.967 67.7907C157.278 64.6403 161.323 64.2765 161.323 64.2765L162.495 64.1487C162.538 65.1257 162.934 66.6951 164.948 66.7368C167.859 66.8094 181.058 64.5075 181.058 64.5075C181.058 64.5075 182.733 64.2564 182.535 61.7776L186.713 61.2792C186.713 61.2792 191.003 61.0381 191.631 66.0865C191.916 68.4127 198.127 120.982 198.127 120.982C198.349 122.931 198.626 124.872 198.895 126.814C199.135 128.549 199.065 131.755 195.448 132.362Z" fill="#324A58"/>
<path d="M250.741 109.338C246.022 103.791 236.505 104.145 229.458 110.125C222.428 116.122 220.55 125.961 225.269 131.523C229.988 137.069 239.506 136.555 246.552 130.575C253.582 124.578 255.46 114.884 250.741 109.338ZM241.496 119.514C240.726 121.909 237.114 124.224 234.193 124.224C234.161 124.224 234.145 124.224 234.113 124.224C231.384 124.192 229.041 122.665 228.929 122.601C228.736 122.472 228.688 122.231 228.816 122.038C228.945 121.845 229.186 121.797 229.378 121.925C229.394 121.942 231.641 123.228 234.129 123.26C234.145 123.26 234.177 123.26 234.193 123.26C236.777 123.26 240.036 120.993 240.71 118.919C241.464 116.572 241.287 115.157 241.191 114.193C241.159 113.968 241.32 113.775 241.544 113.743C241.769 113.726 241.962 113.871 241.994 114.096C242.106 115.109 242.315 116.99 241.496 119.514Z" fill="#FFE7E6"/>
<path d="M239.795 108.003L242.652 101.685L243.39 108.003H239.795Z" fill="#2568EF"/>
<path d="M246.857 115.206L245.99 121.106L256.391 116.202L246.857 115.206Z" fill="#2568EF"/>
<path d="M236.456 127.488L241.593 128.179L238.013 137.471L236.456 127.488Z" fill="#2568EF"/>
<path d="M226.602 124.144L227.468 129.224L218.047 130.092L226.602 124.144Z" fill="#2568EF"/>
<path d="M233.969 103.196C227.468 93.8561 221.738 93.1809 220.711 86.0912C219.812 79.8214 222.172 74.3715 219.491 74.0018C217.389 73.7124 214.901 77.844 214.355 81.4451C213.681 85.9304 214.323 89.3065 216.281 94.3866C216.281 94.3866 212.309 94.2994 207.3 94.5629C207.339 94.716 207.378 94.869 207.423 95.0211C208.1 97.2946 209.37 99.3169 210.993 101.033C212.617 102.75 214.523 104.169 216.461 105.508C216.751 105.708 216.481 106.183 216.183 105.985C215.028 105.219 213.894 104.418 212.822 103.538C210.973 102.022 209.294 100.254 208.13 98.1491C207.526 97.0586 207.061 95.8875 206.763 94.6768C206.756 94.6491 206.751 94.621 206.745 94.5933C204.545 94.7187 202.172 94.9129 199.862 95.2113C192.027 96.2236 189.22 97.0874 183.186 99.9329C177.488 102.618 174.037 106.171 174.952 107.505C175.867 108.855 180.842 105.994 182.511 105.158C185.593 103.63 191.171 101.895 193.428 101.45C195.826 100.978 197.69 101.177 197.69 101.177C197.69 101.177 191.134 101.696 183.234 106.203C176.892 109.82 172.978 113.325 174.823 115.205C175.915 116.315 182.158 111.701 185.497 110.302C188.835 108.887 192.7 107.087 195.462 106.191C198.224 105.295 200.518 105.144 200.518 105.144C200.518 105.144 192.816 107.231 185.898 112.151C181.796 115.068 178.355 117.81 179.847 119.321C181.324 120.832 187.391 116.17 192.447 114.096C197.503 112.038 204.147 110.109 204.147 110.109C204.147 110.109 196.315 113.501 193.49 115.479C190.681 117.456 186.54 120.768 188.065 121.716C189.606 122.649 194.405 119.337 197.599 118.147C200.793 116.958 206.748 114.386 212.638 113.887C218.528 113.373 224.242 114.353 226.939 117.006C229.635 119.659 231.16 122.585 231.16 122.585C231.16 122.585 233.937 124.031 236.778 122.585C241.063 120.398 241.063 117.713 241.063 117.713C241.063 117.713 237.403 108.132 233.969 103.196ZM187.615 101.991H187.551C187.407 101.991 187.262 101.878 187.23 101.733C187.086 100.994 186.219 100.19 185.898 99.949C185.754 99.8365 185.722 99.6435 185.834 99.4989C185.946 99.3542 186.139 99.322 186.283 99.4346C186.331 99.4828 187.648 100.48 187.856 101.621C187.904 101.782 187.792 101.959 187.615 101.991ZM190.472 107.119C190.424 107.135 190.376 107.151 190.328 107.151C190.2 107.151 190.087 107.087 190.039 106.974C189.509 105.833 188.049 105.238 188.033 105.222C187.872 105.158 187.792 104.965 187.856 104.804C187.92 104.643 188.113 104.563 188.274 104.627C188.338 104.659 189.975 105.335 190.617 106.701C190.697 106.846 190.633 107.039 190.472 107.119ZM195.32 111.797C195.271 111.829 195.191 111.862 195.143 111.862C195.047 111.862 194.95 111.813 194.886 111.717C193.65 109.948 192.447 109.9 192.382 109.9C192.206 109.9 192.061 109.756 192.061 109.579C192.061 109.402 192.206 109.257 192.382 109.257C192.447 109.257 193.955 109.273 195.4 111.347C195.512 111.492 195.464 111.685 195.32 111.797ZM200.215 115.945C200.151 116.009 200.07 116.025 199.99 116.025C199.91 116.025 199.814 115.993 199.749 115.929C198.594 114.691 197.438 114.45 197.422 114.45C197.246 114.418 197.133 114.241 197.165 114.08C197.197 113.903 197.358 113.791 197.535 113.823C197.583 113.839 198.915 114.096 200.215 115.495C200.359 115.623 200.343 115.832 200.215 115.945ZM207.954 109.167C207.912 108.301 207.819 107.434 207.654 106.582C207.361 105.074 206.832 103.616 206.001 102.32C205.626 101.735 205.189 101.184 204.722 100.669C204.274 100.174 203.76 99.6543 203.125 99.41C202.878 99.3145 202.973 98.9248 203.238 99.0031C204.01 99.231 204.652 99.8464 205.191 100.419C206.266 101.562 207.105 102.89 207.661 104.357C208.242 105.89 208.525 107.529 208.517 109.167C208.515 109.532 207.972 109.527 207.954 109.167ZM215.495 84.6443C215.318 84.6604 215.158 84.5479 215.142 84.371C215.126 84.1942 215.238 84.0334 215.415 84.0173C215.495 84.0013 217.324 83.7762 219.042 84.3549C219.202 84.4192 219.299 84.5961 219.251 84.7568C219.202 84.8855 219.074 84.9819 218.946 84.9819C218.913 84.9819 218.881 84.9819 218.849 84.9658C217.26 84.4192 215.511 84.6443 215.495 84.6443ZM224.499 104.74C224.435 104.836 224.338 104.901 224.226 104.901C224.178 104.901 224.114 104.884 224.066 104.852C224.001 104.82 222.348 103.856 220.856 102.36C219.347 100.865 218.657 98.3092 218.625 98.1967C218.576 98.0198 218.673 97.843 218.849 97.8108C219.026 97.7626 219.202 97.8591 219.251 98.0359C219.251 98.0681 219.941 100.544 221.321 101.91C222.766 103.341 224.387 104.29 224.403 104.29C224.531 104.386 224.579 104.579 224.499 104.74Z" fill="#FF564F"/>
<path d="M215.513 103.88L177.468 109.925C174.765 110.428 172.586 109.456 172.22 107.226L168.707 85.845C168.341 83.6152 169.949 81.1173 172.77 80.6556L210.174 75.3729C212.793 74.8322 213.974 76.1467 214.34 78.3764L217.853 99.7571C218.63 101.916 217.735 103.516 215.513 103.88Z" fill="#2568EF"/>
<path d="M183.556 89.9323L174.424 91.4261L173.527 85.9641C173.42 85.3168 174.114 84.3477 174.759 84.2421L182.83 83.0871L183.881 89.4777C183.916 89.6936 183.771 89.8971 183.556 89.9323Z" fill="#FF9B19"/>
<path d="M183.632 99.2917L175.783 100.578C175.352 100.648 174.946 100.355 174.875 99.923C174.804 99.4909 175.096 99.0836 175.526 99.0131L183.375 97.7272C183.805 97.6568 184.212 97.9498 184.283 98.3818C184.354 98.8139 184.062 99.2212 183.632 99.2917Z" fill="#FFE7E6"/>
<path d="M197.778 100.285L193.853 100.928C193.674 100.957 193.504 100.835 193.475 100.655C193.445 100.475 193.567 100.305 193.746 100.276L197.671 99.6327C197.85 99.6034 198.019 99.7254 198.049 99.9055C198.078 100.086 197.957 100.255 197.778 100.285Z" fill="#FFE7E6"/>
<path d="M191.473 101.411L187.548 102.054C187.369 102.083 187.2 101.961 187.17 101.781C187.141 101.601 187.262 101.432 187.441 101.402L191.366 100.759C191.545 100.73 191.715 100.852 191.744 101.032C191.774 101.212 191.652 101.382 191.473 101.411Z" fill="#FFE7E6"/>
<path d="M197.166 97.0689L186.802 98.7671C186.372 98.8376 185.966 98.5445 185.895 98.1124C185.824 97.6804 186.115 97.273 186.546 97.2025L196.909 95.5043C197.339 95.4338 197.746 95.7268 197.816 96.1589C197.887 96.591 197.596 96.9984 197.166 97.0689Z" fill="#FFE7E6"/>
<path d="M206.197 102.518C208.805 102.091 210.536 99.4096 210.062 96.5283C209.589 93.647 207.09 91.6572 204.482 92.0839C201.873 92.5107 200.142 95.1924 200.616 98.0737C201.089 100.955 203.588 102.945 206.197 102.518Z" fill="#FF9B19"/>
<path d="M211.48 101.65C214.347 101.181 216.317 98.6432 215.88 95.9813C215.442 93.3194 212.763 91.5418 209.895 92.0109C207.028 92.48 205.058 95.0182 205.495 97.6801C205.933 100.342 208.612 102.12 211.48 101.65Z" fill="#FF564F"/>
<path d="M210.463 84.1154C210.461 84.1156 210.46 84.1158 210.458 84.1161L206.872 84.6214C206.771 84.6357 206.675 84.5697 206.652 84.4695L206.138 82.2328C206.119 82.1493 206.156 82.0627 206.229 82.0188C206.302 81.9749 206.395 81.9831 206.46 82.0396L207.554 82.996L207.943 81.616C207.962 81.5497 208.014 81.498 208.08 81.4796C208.146 81.4612 208.217 81.4785 208.267 81.5255L209.207 82.403L209.925 81.6494C209.976 81.5954 210.054 81.5751 210.125 81.5971C210.196 81.6192 210.249 81.6796 210.262 81.7534L210.625 83.887C210.634 83.9397 210.621 83.9938 210.59 84.0369C210.56 84.0789 210.514 84.107 210.463 84.1154ZM206.996 84.2041L210.202 83.7524L209.939 82.2079L209.358 82.8179C209.284 82.896 209.16 82.8996 209.081 82.8258L208.235 82.0357L207.849 83.4045C207.83 83.4697 207.78 83.5208 207.715 83.54C207.651 83.5591 207.58 83.5439 207.529 83.4994L206.659 82.7383L206.996 84.2041Z" fill="#FFE7E6"/>
<path d="M206.276 81.7144C206.272 81.7151 206.268 81.7158 206.263 81.7163C205.953 81.7601 205.664 81.5422 205.62 81.2306C205.599 81.0796 205.637 80.9294 205.728 80.8076C205.817 80.6893 205.945 80.6117 206.091 80.5879C206.095 80.5873 206.099 80.5866 206.103 80.586C206.414 80.5421 206.702 80.7602 206.747 81.0718C206.747 81.0718 206.747 81.0718 206.747 81.0719C206.79 81.3791 206.58 81.6647 206.276 81.7144ZM206.155 80.9784C206.11 80.9856 206.071 81.0094 206.044 81.0457C206.016 81.0831 206.004 81.1291 206.011 81.1753C206.024 81.2709 206.113 81.3378 206.208 81.3243C206.309 81.3077 206.37 81.2222 206.356 81.1266C206.342 81.0311 206.254 80.9643 206.159 80.9777C206.158 80.9779 206.156 80.9781 206.155 80.9784ZM206.551 81.0992L206.553 81.099L206.551 81.0992Z" fill="#FFE7E6"/>
<path d="M208.058 81.131C208.053 81.1319 208.047 81.1328 208.042 81.1335C207.656 81.188 207.297 80.9168 207.241 80.529C207.187 80.1465 207.449 79.7912 207.827 79.7294C207.832 79.7285 207.837 79.7276 207.843 79.7269C208.03 79.7006 208.216 79.749 208.367 79.8631C208.519 79.9773 208.616 80.1437 208.643 80.3314C208.67 80.5193 208.622 80.7061 208.508 80.8576C208.398 81.0048 208.239 81.1015 208.058 81.131ZM207.891 80.1198C207.724 80.1472 207.608 80.3045 207.632 80.4738C207.656 80.6454 207.815 80.7655 207.986 80.7414C208.071 80.7301 208.143 80.6863 208.193 80.6192C208.243 80.5522 208.264 80.4694 208.253 80.3864C208.253 80.3864 208.253 80.3864 208.252 80.3862C208.241 80.3031 208.197 80.2295 208.13 80.1789C208.064 80.1284 207.981 80.107 207.898 80.1187C207.896 80.1192 207.894 80.1194 207.891 80.1198Z" fill="#FFE7E6"/>
<path d="M209.894 81.2887C209.889 81.2894 209.885 81.2901 209.881 81.2907C209.57 81.3344 209.282 81.1165 209.238 80.8049C209.216 80.6539 209.255 80.5037 209.346 80.3819C209.437 80.2602 209.568 80.1812 209.721 80.1603C210.031 80.1165 210.32 80.3345 210.364 80.6461L210.364 80.6462C210.408 80.9536 210.197 81.2391 209.894 81.2887ZM209.772 80.5528C209.728 80.5601 209.688 80.5839 209.661 80.6202C209.633 80.6575 209.622 80.7035 209.628 80.7498C209.642 80.8455 209.73 80.9123 209.826 80.8988C209.926 80.8837 209.987 80.7967 209.974 80.7011C209.96 80.6056 209.872 80.5387 209.776 80.5522C209.775 80.5524 209.774 80.5526 209.772 80.5528ZM210.169 80.6736L210.17 80.6734L210.169 80.6736Z" fill="#FFE7E6"/>
<path d="M208.96 86.2584C206.784 86.6144 204.721 85.1276 204.362 82.9441C204.003 80.7605 205.482 78.6944 207.658 78.3384C209.834 77.9824 211.897 79.4692 212.256 81.6528C212.614 83.8364 211.136 85.9024 208.96 86.2584ZM207.722 78.729C205.761 79.0499 204.428 80.9122 204.751 82.8804C205.075 84.8486 206.934 86.1888 208.896 85.8679C210.857 85.547 212.19 83.6847 211.866 81.7165C211.543 79.7483 209.684 78.4081 207.722 78.729Z" fill="#FFE7E6"/>
<path d="M211.269 67.6327C210.965 67.6771 210.697 67.4795 210.652 67.1767C210.652 67.1767 210.301 63.2244 210.606 63.18C210.91 63.1357 211.727 67.0201 211.727 67.0201C211.772 67.3229 211.574 67.5884 211.269 67.6327Z" fill="#FF9B19"/>
<path d="M212.711 68.6955C212.406 68.7399 212.138 68.542 212.092 68.2386C212.047 67.9352 212.246 67.6693 212.551 67.6248C212.551 67.6248 216.895 67.229 216.94 67.5324C216.985 67.8358 212.711 68.6955 212.711 68.6955Z" fill="#FF9B19"/>
<path d="M212.116 73.3312C211.811 73.3756 211.047 69.8473 211.047 69.8473C211.002 69.5444 211.201 69.279 211.505 69.2346C211.81 69.1902 212.077 69.3878 212.123 69.6906C212.123 69.6906 212.42 73.2868 212.116 73.3312Z" fill="#FF9B19"/>
<path d="M210.376 69.0381C210.376 69.0381 206.392 69.3815 206.347 69.0782C206.301 68.7748 210.216 67.9675 210.216 67.9675C210.522 67.923 210.79 68.121 210.835 68.4243C210.88 68.7277 210.681 68.9936 210.376 69.0381Z" fill="#FF9B19"/>
<path d="M212.909 59.2953C212.713 59.3177 212.546 59.1896 212.522 58.9996C212.522 58.9996 212.37 56.5243 212.566 56.5019C212.761 56.4795 213.213 58.9205 213.213 58.9205C213.237 59.1104 213.105 59.2728 212.909 59.2953Z" fill="#FF9B19"/>
<path d="M213.812 59.9844C213.616 60.0069 213.448 59.8785 213.425 59.6883C213.401 59.498 213.533 59.3353 213.729 59.3128C213.729 59.3128 216.515 59.1413 216.539 59.3316C216.562 59.5219 213.812 59.9844 213.812 59.9844Z" fill="#FF9B19"/>
<path d="M213.347 62.8702C213.151 62.8927 212.727 60.675 212.727 60.675C212.703 60.4851 212.835 60.3227 213.031 60.3003C213.227 60.2778 213.394 60.406 213.418 60.5959C213.418 60.5959 213.543 62.8478 213.347 62.8702Z" fill="#FF9B19"/>
<path d="M212.312 60.1578C212.312 60.1578 209.757 60.3029 209.734 60.1126C209.71 59.9223 212.23 59.4862 212.23 59.4862C212.426 59.4638 212.593 59.5921 212.617 59.7824C212.64 59.9727 212.508 60.1353 212.312 60.1578Z" fill="#FF9B19"/>
</svg>
