<svg width="71" height="65" viewBox="0 0 71 65" fill="none" xmlns="http://www.w3.org/2000/svg">
<path fill-rule="evenodd" clip-rule="evenodd" d="M20.6309 12.1875H50.835C54.5505 12.1875 57.563 14.9906 57.563 18.4478V46.5522C57.563 50.0094 54.5505 52.8125 50.835 52.8125H20.6309C16.9154 52.8125 13.9028 50.0094 13.9028 46.5522V18.4478C13.9028 14.9906 16.9154 12.1875 20.6309 12.1875Z" stroke="#4D565F" stroke-width="2" stroke-miterlimit="10"/>
<path fill-rule="evenodd" clip-rule="evenodd" d="M35.3661 40.6271H37.1518C37.1518 40.6271 37.691 40.5723 37.966 40.296C38.2193 40.0421 38.2105 39.5668 38.2105 39.5668C38.2105 39.5668 38.1756 37.3365 39.2868 37.0095C40.3826 36.6865 41.7907 39.1646 43.2839 40.1173C44.4125 40.8384 45.2704 40.6799 45.2704 40.6799L49.2609 40.6271C49.2609 40.6271 51.3479 40.5073 50.359 38.9798C50.2782 38.8559 49.7827 37.8504 47.3923 35.7866C44.8905 33.6254 45.2246 33.9748 48.2393 30.2373C50.0752 27.9602 50.8087 26.5709 50.5795 25.9757C50.3612 25.409 49.0099 25.5593 49.0099 25.5593L44.5173 25.5857C44.5173 25.5857 44.1833 25.543 43.9366 25.6812C43.6943 25.8152 43.5393 26.1301 43.5393 26.1301C43.5393 26.1301 42.8276 27.8912 41.8802 29.3902C39.8805 32.5509 39.0794 32.7174 38.7519 32.5224C37.9901 32.0654 38.1822 30.6841 38.1822 29.7051C38.1822 26.642 38.6821 25.3643 37.2107 25.0332C36.7217 24.9235 36.3637 24.8504 35.1128 24.8382C33.5105 24.824 32.1527 24.8423 31.3843 25.1937C30.8734 25.4273 30.4783 25.9452 30.7184 25.9757C31.0153 26.0123 31.6877 26.1443 32.0435 26.5952C32.5042 27.1782 32.4889 28.4863 32.4889 28.4863C32.4889 28.4863 32.753 32.0918 31.8711 32.5407C31.2664 32.8474 30.4347 32.2198 28.6511 29.3537C27.7365 27.8851 27.0466 26.2601 27.0466 26.2601C27.0466 26.2601 26.9135 25.9574 26.6755 25.7949C26.3874 25.5979 25.9857 25.5349 25.9857 25.5349L21.7157 25.5613C21.7157 25.5613 21.0739 25.5776 20.8403 25.8376C20.6308 26.0691 20.8229 26.5445 20.8229 26.5445C20.8229 26.5445 24.1651 33.8204 27.9504 37.4868C31.4257 40.8465 35.3661 40.6271 35.3661 40.6271Z" fill="#4D565F"/>
</svg>
