<svg width="28" height="28" viewBox="0 0 28 28" fill="none" xmlns="http://www.w3.org/2000/svg">
<path fill-rule="evenodd" clip-rule="evenodd" d="M5.3525 1.5H22.6475C24.775 1.5 26.5 3.225 26.5 5.3525V22.6475C26.5 24.775 24.775 26.5 22.6475 26.5H5.3525C3.225 26.5 1.5 24.775 1.5 22.6475V5.3525C1.5 3.225 3.225 1.5 5.3525 1.5Z" stroke="white" stroke-width="2" stroke-miterlimit="10"/>
<path fill-rule="evenodd" clip-rule="evenodd" d="M13.7901 19.0012H14.8126C14.8126 19.0012 15.1213 18.9675 15.2788 18.7975C15.4238 18.6412 15.4188 18.3487 15.4188 18.3487C15.4188 18.3487 15.3988 16.9762 16.0351 16.775C16.6626 16.5762 17.4688 18.1012 18.3238 18.6875C18.9701 19.1312 19.4613 19.0337 19.4613 19.0337L21.7463 19.0012C21.7463 19.0012 22.9413 18.9275 22.3751 17.9875C22.3288 17.9112 22.0451 17.2925 20.6763 16.0225C19.2438 14.6925 19.4351 14.9075 21.1613 12.6075C22.2126 11.2062 22.6326 10.3512 22.5013 9.98495C22.3763 9.6362 21.6026 9.7287 21.6026 9.7287L19.0301 9.74495C19.0301 9.74495 18.8388 9.7187 18.6976 9.8037C18.5588 9.8862 18.4701 10.08 18.4701 10.08C18.4701 10.08 18.0626 11.1637 17.5201 12.0862C16.3751 14.0312 15.9163 14.1337 15.7288 14.0137C15.2926 13.7325 15.4026 12.8825 15.4026 12.28C15.4026 10.395 15.6888 9.6087 14.8463 9.40495C14.5663 9.33745 14.3613 9.29245 13.6451 9.28495C12.7276 9.2762 11.9501 9.28745 11.5101 9.5037C11.2176 9.64745 10.9913 9.9662 11.1288 9.98495C11.2988 10.0075 11.6838 10.0887 11.8876 10.3662C12.1513 10.725 12.1426 11.53 12.1426 11.53C12.1426 11.53 12.2938 13.7487 11.7888 14.025C11.4426 14.2137 10.9663 13.8275 9.94506 12.0637C9.42131 11.16 9.02631 10.16 9.02631 10.16C9.02631 10.16 8.95006 9.9737 8.81381 9.8737C8.64881 9.75245 8.41881 9.7137 8.41881 9.7137L5.97381 9.72995C5.97381 9.72995 5.60631 9.73995 5.47256 9.89995C5.35256 10.0425 5.46256 10.335 5.46256 10.335C5.46256 10.335 7.37631 14.8125 9.54381 17.0687C11.5338 19.1362 13.7901 19.0012 13.7901 19.0012Z" fill="white"/>
</svg>
