<svg width="40" height="40" viewBox="0 0 40 40" fill="none" xmlns="http://www.w3.org/2000/svg">
<path fill-rule="evenodd" clip-rule="evenodd" d="M11.3525 7.5H28.6475C30.775 7.5 32.5 9.225 32.5 11.3525V28.6475C32.5 30.775 30.775 32.5 28.6475 32.5H11.3525C9.225 32.5 7.5 30.775 7.5 28.6475V11.3525C7.5 9.225 9.225 7.5 11.3525 7.5Z" stroke="#4D565F" stroke-width="2" stroke-miterlimit="10"/>
<path fill-rule="evenodd" clip-rule="evenodd" d="M19.7901 25.0013H20.8126C20.8126 25.0013 21.1213 24.9675 21.2788 24.7975C21.4238 24.6413 21.4188 24.3488 21.4188 24.3488C21.4188 24.3488 21.3988 22.9763 22.0351 22.775C22.6626 22.5763 23.4688 24.1013 24.3238 24.6875C24.9701 25.1313 25.4613 25.0338 25.4613 25.0338L27.7463 25.0013C27.7463 25.0013 28.9413 24.9275 28.3751 23.9875C28.3288 23.9113 28.0451 23.2925 26.6763 22.0225C25.2438 20.6925 25.4351 20.9075 27.1613 18.6075C28.2126 17.2063 28.6326 16.3513 28.5013 15.985C28.3763 15.6363 27.6026 15.7288 27.6026 15.7288L25.0301 15.745C25.0301 15.745 24.8388 15.7188 24.6976 15.8038C24.5588 15.8863 24.4701 16.08 24.4701 16.08C24.4701 16.08 24.0626 17.1638 23.5201 18.0863C22.3751 20.0313 21.9163 20.1338 21.7288 20.0138C21.2926 19.7325 21.4026 18.8825 21.4026 18.28C21.4026 16.395 21.6888 15.6088 20.8463 15.405C20.5663 15.3375 20.3613 15.2925 19.6451 15.285C18.7276 15.2763 17.9501 15.2875 17.5101 15.5038C17.2176 15.6475 16.9913 15.9663 17.1288 15.985C17.2988 16.0075 17.6838 16.0888 17.8876 16.3663C18.1513 16.725 18.1426 17.53 18.1426 17.53C18.1426 17.53 18.2938 19.7488 17.7888 20.025C17.4426 20.2138 16.9663 19.8275 15.9451 18.0638C15.4213 17.16 15.0263 16.16 15.0263 16.16C15.0263 16.16 14.9501 15.9738 14.8138 15.8738C14.6488 15.7525 14.4188 15.7138 14.4188 15.7138L11.9738 15.73C11.9738 15.73 11.6063 15.74 11.4726 15.9C11.3526 16.0425 11.4626 16.335 11.4626 16.335C11.4626 16.335 13.3763 20.8125 15.5438 23.0688C17.5338 25.1363 19.7901 25.0013 19.7901 25.0013Z" fill="#4D565F"/>
</svg>
