<svg width="32" height="32" viewBox="0 0 32 32" fill="none" xmlns="http://www.w3.org/2000/svg">
<path d="M3.24536 28.8686L5.04136 22.3119C3.93336 20.3932 3.35069 18.2159 3.35136 15.9859C3.35469 9.00925 9.03203 3.33325 16.0094 3.33325C19.3954 3.33459 22.5727 4.65259 24.9627 7.04392C27.352 9.43592 28.668 12.6146 28.6667 15.9959C28.664 22.9726 22.9854 28.6493 16.0094 28.6493C16.0087 28.6493 16.0094 28.6493 16.0094 28.6493H16.004C13.886 28.6486 11.804 28.1172 9.95536 27.1086L3.24536 28.8686Z" fill="white"/>
<path d="M3.24533 29.202C3.15733 29.202 3.072 29.1673 3.00867 29.1033C2.92533 29.0187 2.89267 28.8953 2.924 28.7813L4.68333 22.3573C3.59267 20.42 3.01733 18.22 3.01867 15.9867C3.02133 8.82533 8.84867 3 16.0093 3C19.4827 3.00133 22.746 4.354 25.1987 6.80867C27.6513 9.264 29.0013 12.5267 29 15.996C28.9973 23.1567 23.1693 28.9827 16.0093 28.9827C13.8833 28.982 11.78 28.4573 9.91333 27.4647L3.33 29.1907C3.302 29.1987 3.274 29.202 3.24533 29.202Z" fill="white"/>
<path d="M16.0093 3.33341C19.3953 3.33475 22.5726 4.65275 24.9626 7.04408C27.352 9.43608 28.668 12.6147 28.6666 15.9961C28.664 22.9727 22.9853 28.6494 16.0093 28.6494H16.004C13.886 28.6487 11.804 28.1174 9.95531 27.1087L3.24531 28.8687L5.04131 22.3121C3.93331 20.3934 3.35064 18.2161 3.35131 15.9861C3.35464 9.00941 9.03198 3.33341 16.0093 3.33341ZM16.0093 2.66675C8.66531 2.66675 2.68798 8.64141 2.68464 15.9861C2.68398 18.2307 3.25064 20.4427 4.32531 22.4007L2.60198 28.6934C2.53931 28.9234 2.60331 29.1687 2.77131 29.3381C2.89798 29.4661 3.06931 29.5361 3.24531 29.5361C3.30198 29.5361 3.35864 29.5287 3.41464 29.5141L9.87264 27.8207C11.758 28.7994 13.8713 29.3161 16.004 29.3167C23.3533 29.3167 29.3306 23.3414 29.334 15.9967C29.3353 12.4374 27.9506 9.09075 25.4353 6.57341C22.9186 4.05541 19.5713 2.66808 16.0093 2.66675Z" fill="#CFD8DC"/>
<path d="M23.4506 8.5547C21.464 6.5667 18.8233 5.47137 16.0126 5.4707C10.21 5.4707 5.49064 10.188 5.48798 15.9867C5.48731 17.974 6.04331 19.9087 7.09664 21.584L7.34731 21.982L6.28398 25.8627L10.266 24.8187L10.6506 25.0467C12.2653 26.0054 14.1173 26.512 16.0053 26.5127H16.0093C21.808 26.5127 26.5273 21.7947 26.5293 15.9954C26.53 13.1854 25.4373 10.5427 23.4506 8.5547Z" fill="#40C351"/>
<path fill-rule="evenodd" clip-rule="evenodd" d="M12.8453 10.6966C12.6087 10.1699 12.3593 10.1593 12.1333 10.1499C11.9487 10.1419 11.738 10.1426 11.5273 10.1426C11.3167 10.1426 10.974 10.2219 10.684 10.5386C10.394 10.8553 9.57666 11.6199 9.57666 13.1759C9.57666 14.7319 10.71 16.2359 10.868 16.4466C11.026 16.6573 13.056 19.9526 16.2707 21.2206C18.942 22.2739 19.486 22.0646 20.066 22.0119C20.646 21.9593 21.9373 21.2473 22.2007 20.5086C22.464 19.7699 22.464 19.1373 22.3853 19.0053C22.306 18.8733 22.0953 18.7946 21.7793 18.6359C21.4633 18.4773 19.908 17.7126 19.618 17.6073C19.328 17.5019 19.1173 17.4493 18.906 17.7659C18.6953 18.0819 18.0893 18.7946 17.9047 19.0053C17.72 19.2166 17.5353 19.2433 17.2193 19.0846C16.9033 18.9259 15.8847 18.5926 14.676 17.5153C13.736 16.6773 13.1013 15.6419 12.9167 15.3253C12.732 15.0093 12.8967 14.8379 13.0553 14.6799C13.1973 14.5379 13.3713 14.3106 13.53 14.1259C13.688 13.9413 13.7407 13.8093 13.846 13.5986C13.9513 13.3873 13.8987 13.2026 13.8193 13.0446C13.7413 12.8859 13.1267 11.3219 12.8453 10.6966Z" fill="white"/>
</svg>
