<svg width="35" height="26" viewBox="0 0 35 26" fill="none" xmlns="http://www.w3.org/2000/svg">
<path d="M17.5219 0.199951C12.2406 0.199951 7.28127 0.599951 4.64065 1.15933C2.88127 1.55933 1.3594 2.75933 1.04065 4.59995C0.7219 6.5187 0.400024 9.39995 0.400024 13C0.400024 16.6 0.718775 19.4 1.11877 21.4C1.44065 23.1593 2.9594 24.4406 4.71877 24.8406C7.5219 25.4 12.3188 25.7999 17.6 25.7999C22.8813 25.7999 27.6781 25.4 30.4781 24.8406C32.2406 24.4406 33.7594 23.2406 34.0781 21.4C34.4 19.4 34.8 16.5218 34.8781 12.9218C34.8781 9.32183 34.4781 6.44058 34.0781 4.44058C33.7594 2.6812 32.2406 1.39995 30.4781 0.999951C27.6781 0.599951 22.8 0.199951 17.5219 0.199951ZM17.5219 1.79995C23.2813 1.79995 27.9188 2.27808 30.1594 2.67808C31.3594 2.99995 32.3188 3.79995 32.4781 4.84058C32.9594 7.39995 33.2781 10.1218 33.2781 12.9218C33.2 16.3593 32.8 19.1593 32.4781 21.1593C32.2406 22.6781 30.6406 23.1593 30.1594 23.3218C27.2781 23.8812 22.4781 24.2781 17.6781 24.2781C12.8781 24.2781 8.00002 23.9593 5.20002 23.3218C4.00002 23 3.04065 22.1999 2.88127 21.1593C2.24065 18.9187 2.00002 15.9593 2.00002 13C2.00002 9.3187 2.3219 6.59995 2.64065 4.92183C2.88127 3.39995 4.5594 2.9187 4.9594 2.75933C7.60002 2.19995 12.4813 1.79995 17.5219 1.79995ZM13.2 6.59995V19.4L24.4 13L13.2 6.59995ZM14.8 9.32183L21.2 13L14.8 16.6781V9.32183Z" fill="#4D565F"/>
</svg>
