<svg width="335" height="119" viewBox="0 0 335 119" fill="none" xmlns="http://www.w3.org/2000/svg">
<rect width="335" height="119" rx="8" fill="#FAFAFA"/>
<path d="M155.141 112.226C154.63 112.226 154.113 112.218 153.606 112.202L153.617 111.829C154.345 111.852 155.089 111.858 155.821 111.848L155.826 112.222C155.598 112.225 155.37 112.226 155.141 112.226ZM158.045 112.14L158.023 111.767C158.753 111.724 159.491 111.662 160.219 111.585L160.258 111.956C159.524 112.034 158.78 112.096 158.045 112.14ZM151.389 112.082C150.653 112.025 149.91 111.95 149.179 111.859L149.224 111.489C149.949 111.578 150.687 111.653 151.417 111.709L151.389 112.082ZM162.46 111.671L162.404 111.302C163.129 111.191 163.86 111.061 164.575 110.917L164.647 111.284C163.926 111.429 163.19 111.559 162.46 111.671ZM146.982 111.534C146.256 111.41 145.522 111.266 144.802 111.108L144.88 110.743C145.595 110.9 146.323 111.043 147.044 111.166L146.982 111.534ZM166.814 110.795L166.725 110.432C167.437 110.254 168.152 110.057 168.852 109.847L168.957 110.205C168.252 110.417 167.531 110.615 166.814 110.795ZM142.644 110.581C141.931 110.389 141.214 110.178 140.512 109.953L140.623 109.597C141.319 109.82 142.031 110.029 142.738 110.22L142.644 110.581ZM171.07 109.516L170.949 109.164C171.64 108.921 172.334 108.658 173.014 108.382L173.15 108.729C172.466 109.007 171.766 109.271 171.07 109.516ZM138.405 109.224C137.713 108.966 137.016 108.688 136.335 108.397L136.478 108.053C137.154 108.342 137.845 108.618 138.532 108.873L138.405 109.224ZM175.188 107.848L175.035 107.508C175.698 107.203 176.365 106.878 177.016 106.54L177.184 106.873C176.527 107.213 175.856 107.541 175.188 107.848ZM179.134 105.806L178.951 105.482C179.587 105.114 180.222 104.728 180.837 104.334L181.034 104.649C180.414 105.047 179.775 105.436 179.134 105.806ZM182.881 103.405L182.67 103.099C183.269 102.676 183.866 102.232 184.446 101.781L184.671 102.077C184.087 102.532 183.485 102.979 182.881 103.405ZM126.672 102.879C126.076 102.442 125.482 101.983 124.904 101.516L125.134 101.224C125.708 101.688 126.298 102.143 126.888 102.577L126.672 102.879ZM186.399 100.668L186.161 100.382C186.719 99.9053 187.275 99.4085 187.812 98.9052L188.063 99.1795C187.521 99.6865 186.961 100.187 186.399 100.668ZM123.2 100.073C122.646 99.5813 122.095 99.0701 121.563 98.5532L121.819 98.2837C122.347 98.7968 122.893 99.3042 123.443 99.7921L123.2 100.073ZM189.658 97.6156L189.395 97.3534C189.91 96.8256 190.419 96.2793 190.908 95.7299L191.182 95.9797C190.689 96.5335 190.176 97.0837 189.658 97.6156ZM119.997 96.9599C119.488 96.4184 118.986 95.8587 118.504 95.2963L118.782 95.0517C119.261 95.6098 119.759 96.1652 120.264 96.7025L119.997 96.9599ZM192.63 94.2751L192.346 94.0381C192.81 93.4654 193.268 92.8744 193.706 92.2813L194.001 92.5048C193.56 93.1025 193.099 93.6982 192.63 94.2751ZM117.088 93.5662C116.631 92.9818 116.181 92.3785 115.751 91.773L116.05 91.5549C116.477 92.1557 116.923 92.7545 117.377 93.3346L117.088 93.5662ZM195.291 90.6728L194.986 90.4631C195.397 89.8499 195.8 89.2189 196.183 88.5871L196.498 88.7825C196.111 89.4191 195.705 90.055 195.291 90.6728ZM114.496 89.9205C114.095 89.2967 113.701 88.6549 113.327 88.0124L113.645 87.8227C114.016 88.4604 114.407 89.0974 114.805 89.7163L114.496 89.9205ZM197.617 86.8378L197.295 86.6573C197.649 86.0085 197.993 85.3423 198.317 84.677L198.648 84.8425C198.321 85.5128 197.974 86.1841 197.617 86.8378H197.617ZM199.587 82.801L199.249 82.6511C199.543 81.9715 199.825 81.2756 200.088 80.5827L200.432 80.7165C200.167 81.4149 199.883 82.1161 199.587 82.801H199.587ZM110.356 81.9952C110.073 81.3082 109.802 80.6053 109.551 79.9059L109.898 79.7783C110.147 80.4724 110.416 81.1698 110.696 81.8515L110.356 81.9952ZM201.182 78.5942L200.831 78.4768C201.062 77.7746 201.279 77.0569 201.477 76.3435L201.832 76.4445C201.632 77.1634 201.413 77.8867 201.182 78.5942ZM108.841 77.7759C108.621 77.0642 108.415 76.3373 108.228 75.6149L108.585 75.5201C108.77 76.237 108.975 76.9585 109.193 77.6647L108.841 77.7759ZM202.384 74.2667L202.024 74.1821C202.189 73.4625 202.34 72.7275 202.473 71.998L202.836 72.0654C202.702 72.8008 202.55 73.5412 202.384 74.2667ZM107.714 73.4276C107.56 72.6983 107.421 71.9553 107.301 71.2189L107.664 71.1576C107.784 71.8886 107.922 72.6259 108.075 73.3496L107.714 73.4276ZM203.187 69.8459L202.822 69.7952C202.921 69.0639 203.005 68.3181 203.071 67.5786L203.438 67.6122C203.371 68.3575 203.287 69.1089 203.187 69.8459ZM106.987 68.9933C106.9 68.2541 106.829 67.5013 106.775 66.7557L107.143 66.7284C107.196 67.4685 107.267 68.2155 107.354 68.9492L106.987 68.9933ZM203.588 65.3695L203.22 65.3527C203.253 64.6128 203.269 63.8623 203.269 63.1222H203.638C203.638 63.868 203.621 64.6241 203.588 65.3695ZM106.663 64.5103C106.651 64.0525 106.644 63.5854 106.644 63.1222C106.644 62.8349 106.647 62.5481 106.652 62.2618L107.02 62.2684C107.016 62.5524 107.013 62.8371 107.013 63.1222C107.013 63.5819 107.02 64.0456 107.032 64.5001L106.663 64.5103ZM107.108 60.0391L106.74 60.0158C106.786 59.2697 106.849 58.5161 106.929 57.7759L107.295 57.8161C107.217 58.5507 107.154 59.2986 107.108 60.0391H107.108ZM203.031 57.761C202.958 57.0248 202.856 56.6659 202.749 55.9329L203.114 55.8784C203.222 56.6169 203.314 57.1807 203.389 57.9224L203.031 57.761ZM107.582 55.6042L107.218 55.5472C107.331 54.8084 107.462 54.0639 107.608 53.3339L107.969 53.408C107.825 54.1324 107.694 54.8713 107.582 55.6042H107.582ZM202.377 53.7342C202.236 53.0058 202.078 52.2726 201.905 51.5549L202.264 51.4667C202.437 52.1898 202.597 52.9287 202.739 53.6626L202.377 53.7342ZM108.456 51.2321L108.098 51.1413C108.277 50.4181 108.476 49.6888 108.688 48.9737L109.041 49.0811C108.83 49.7908 108.634 50.5144 108.456 51.2321ZM201.335 49.3998C201.129 48.6888 200.904 47.9736 200.667 47.2739L201.016 47.1524C201.255 47.8576 201.482 48.5784 201.689 49.2948L201.335 49.3998ZM109.725 46.954L109.378 46.8301C109.623 46.1242 109.887 45.415 110.164 44.722L110.506 44.8621C110.231 45.5496 109.969 46.2535 109.725 46.954ZM199.903 45.1812C199.634 44.494 199.345 43.8043 199.046 43.1313L199.383 42.9779C199.684 43.6562 199.975 44.3512 200.246 45.0436L199.903 45.1812ZM111.381 42.8095L111.046 42.6536C111.354 41.9745 111.681 41.2934 112.02 40.6293L112.348 40.8005C112.012 41.4596 111.686 42.1355 111.381 42.8095ZM198.098 41.1225C197.768 40.4633 197.418 39.8027 197.058 39.1593L197.379 38.9754C197.742 39.6237 198.094 40.2894 198.427 40.9537L198.098 41.1225ZM113.405 38.8392L113.085 38.6528C113.453 38.006 113.841 37.3586 114.238 36.7286L114.549 36.9295C114.155 37.5547 113.77 38.1973 113.405 38.8392ZM195.931 37.2456C195.541 36.6175 195.133 35.9917 194.718 35.3856L195.021 35.1728C195.439 35.7836 195.851 36.4141 196.243 37.047L195.931 37.2456ZM115.779 35.0754L115.477 34.8602C115.902 34.2497 116.347 33.6412 116.799 33.0515L117.09 33.2803C116.642 33.8656 116.2 34.4695 115.779 35.0754ZM193.422 33.5832C192.978 32.9938 192.515 32.4079 192.046 31.8417L192.329 31.6019C192.801 32.1724 193.268 32.7627 193.716 33.3565L193.422 33.5832ZM118.481 31.5483L118.2 31.3061C118.677 30.7387 119.174 30.1739 119.678 29.6275L119.947 29.8822C119.448 30.4246 118.954 30.9851 118.481 31.5483ZM190.594 30.1651C190.098 29.6191 189.584 29.0779 189.066 28.5568L189.326 28.2919C189.848 28.8171 190.366 29.3623 190.865 29.9124L190.594 30.1651ZM121.487 28.2861L121.229 28.0191C121.757 27.4968 122.302 26.9803 122.851 26.4842L123.097 26.7628C122.552 27.2551 122.011 27.7676 121.487 28.2861V28.2861ZM187.468 27.0202C186.926 26.5216 186.365 26.0299 185.802 25.5587L186.038 25.2709C186.604 25.7457 187.169 26.2412 187.716 26.7436L187.468 27.0202ZM124.773 25.3153L124.54 25.0257C125.11 24.5554 125.7 24.0915 126.292 23.647L126.512 23.9469C125.924 24.3882 125.339 24.8485 124.773 25.3153H124.773ZM128.31 22.6608L128.104 22.351C128.715 21.9351 129.343 21.5279 129.972 21.1403L130.164 21.4594C129.54 21.8439 128.916 22.2482 128.31 22.6608H128.31ZM132.07 20.3453L131.893 20.0177C132.538 19.6599 133.201 19.3127 133.861 18.9857L134.023 19.3212C133.368 19.6456 132.711 19.9902 132.07 20.3453ZM176.578 19.4802C175.922 19.1492 175.25 18.8293 174.58 18.5297L174.729 18.1882C175.404 18.4901 176.081 18.8124 176.743 19.146L176.578 19.4802ZM136.02 18.389L135.873 18.0464C136.548 17.7502 137.239 17.4661 137.925 17.202L138.056 17.5512C137.375 17.8132 136.69 18.0951 136.02 18.389ZM172.54 17.6731C171.857 17.405 171.159 17.1492 170.463 16.9128L170.58 16.5588C171.281 16.797 171.985 17.0547 172.674 17.325L172.54 17.6731ZM140.133 16.8074L140.019 16.4526C140.719 16.2199 141.434 16.0008 142.144 15.8016L142.242 16.1614C141.538 16.3591 140.829 16.5765 140.133 16.8074H140.133ZM168.358 16.2522C167.655 16.0491 166.937 15.8601 166.226 15.6902L166.311 15.3268C167.028 15.498 167.75 15.6885 168.459 15.893L168.358 16.2522ZM144.379 15.6145L144.297 15.2504C145.015 15.0842 145.747 14.9328 146.472 14.8004L146.537 15.1678C145.818 15.2993 145.092 15.4495 144.379 15.6145ZM164.07 15.2286C163.352 15.0921 162.621 14.9707 161.896 14.8676L161.947 14.4979C162.677 14.6017 163.415 14.724 164.138 14.8615L164.07 15.2286ZM148.714 14.8222L148.665 14.4521C149.396 14.3535 150.138 14.2705 150.872 14.2058L150.904 14.5777C150.176 14.6421 149.439 14.7243 148.714 14.8222ZM159.707 14.608C158.981 14.5387 158.242 14.4853 157.51 14.4495L157.528 14.0764C158.265 14.1126 159.01 14.1664 159.742 14.2362L159.707 14.608ZM153.103 14.4345L153.088 14.0615C153.766 14.0328 154.456 14.0182 155.141 14.0181L155.308 14.0183L155.307 14.3918L155.141 14.3915C154.462 14.3917 153.776 14.4061 153.103 14.4345Z" fill="#3F3D56"/>
<g clip-path="url(#clip0)">
<path d="M123.953 96.3213H121.243V99.5542H123.953V96.3213Z" fill="url(#paint0_linear)"/>
<path d="M121.306 99.4363H123.89V96.321H121.306V99.4363Z" fill="#CCCFD1"/>
<path d="M97.4268 96.3213H94.7176V99.5542H97.4268V96.3213Z" fill="url(#paint1_linear)"/>
<path d="M97.364 96.3213H94.7805V99.4366H97.364V96.3213Z" fill="#CCCFD1"/>
<path d="M126.805 59.6375H91.802C91.3591 59.6375 91 59.9998 91 60.4467V95.957C91 96.4039 91.3591 96.7662 91.802 96.7662H126.805C127.248 96.7662 127.607 96.4039 127.607 95.957V60.4467C127.607 59.9998 127.248 59.6375 126.805 59.6375Z" fill="#CCCFD1"/>
<path d="M126.616 59.8281H92.0541C91.6112 59.8281 91.2522 60.1904 91.2522 60.6374V95.5116C91.2522 95.9585 91.6112 96.3208 92.0541 96.3208H126.616C127.059 96.3208 127.418 95.9585 127.418 95.5116V60.6374C127.418 60.1904 127.059 59.8281 126.616 59.8281Z" fill="#F3F3F3"/>
<path d="M121.527 65.7085H97.0802V90.6307H121.527V65.7085Z" fill="url(#paint2_linear)"/>
<path d="M123.867 72.0289L116.011 74.1321L117.029 78.0032L124.885 75.9001L123.867 72.0289Z" fill="url(#paint3_linear)"/>
<path d="M123.822 72.1069L116.088 74.1775L117.073 77.926L124.808 75.8554L123.822 72.1069Z" fill="white"/>
<path d="M123.601 72.2973L116.374 74.2322L117.295 77.7349L124.522 75.8L123.601 72.2973Z" fill="#27AE60"/>
<path d="M120.603 75.7314C121.343 75.5333 121.856 75.0426 121.749 74.6354C121.641 74.2281 120.955 74.0586 120.215 74.2566C119.475 74.4547 118.962 74.9454 119.069 75.3526C119.176 75.7599 119.863 75.9294 120.603 75.7314Z" fill="white"/>
<path d="M117.087 77.6683L115.797 81.4561L123.484 84.1207L124.774 80.3329L117.087 77.6683Z" fill="url(#paint4_linear)"/>
<path d="M124.694 80.3722L117.126 77.7488L115.877 81.4166L123.445 84.04L124.694 80.3722Z" fill="white"/>
<path d="M124.405 80.4067L117.333 77.9553L116.166 81.3826L123.238 83.834L124.405 80.4067Z" fill="#27AE60"/>
<path d="M121.577 81.3086C121.712 80.9101 121.236 80.3836 120.512 80.1327C119.788 79.8817 119.091 80.0014 118.955 80.3998C118.82 80.7983 119.296 81.3248 120.02 81.5757C120.744 81.8266 121.441 81.707 121.577 81.3086Z" fill="white"/>
<path d="M125.582 76.1221H117.455V80.1271H125.582V76.1221Z" fill="url(#paint5_linear)"/>
<path d="M125.52 76.1858H117.518V80.064H125.52V76.1858Z" fill="white"/>
<path d="M125.258 76.3127H117.78V79.9366H125.258V76.3127Z" fill="#27AE60"/>
<path d="M121.487 78.8556C122.253 78.8556 122.873 78.5141 122.873 78.0927C122.873 77.6714 122.253 77.3298 121.487 77.3298C120.722 77.3298 120.101 77.6714 120.101 78.0927C120.101 78.5141 120.722 78.8556 121.487 78.8556Z" fill="white"/>
<path d="M121.338 65.9629H97.269V90.2491H121.338V65.9629Z" fill="white"/>
<path d="M109.304 82.6828C111.809 82.6828 113.84 80.6334 113.84 78.1054C113.84 75.5774 111.809 73.5281 109.304 73.5281C106.798 73.5281 104.767 75.5774 104.767 78.1054C104.767 80.6334 106.798 82.6828 109.304 82.6828Z" fill="url(#paint6_linear)"/>
<path d="M109.304 82.4923C111.705 82.4923 113.651 80.5283 113.651 78.1055C113.651 75.6828 111.705 73.7188 109.304 73.7188C106.902 73.7188 104.956 75.6828 104.956 78.1055C104.956 80.5283 106.902 82.4923 109.304 82.4923Z" fill="#FAFAFA"/>
<path d="M107.319 86.8481H105.996V88.2465H107.319V86.8481Z" fill="url(#paint7_linear)"/>
<path d="M109.084 86.8481H107.76V88.2465H109.084V86.8481Z" fill="url(#paint8_linear)"/>
<path d="M110.847 86.8481H109.524V88.2465H110.847V86.8481Z" fill="url(#paint9_linear)"/>
<path d="M112.611 86.8481H111.288V88.2465H112.611V86.8481Z" fill="url(#paint10_linear)"/>
<path d="M107.287 86.9116H106.027V88.1831H107.287V86.9116Z" fill="#27AE60"/>
<path opacity="0.7" d="M109.052 86.9116H107.791V88.1831H109.052V86.9116Z" fill="#27AE60"/>
<path opacity="0.5" d="M110.816 86.9116H109.556V88.1831H110.816V86.9116Z" fill="#27AE60"/>
<path opacity="0.3" d="M112.58 86.9116H111.32V88.1831H112.58V86.9116Z" fill="#27AE60"/>
<path d="M111.33 75.4625L111.124 75.3167L110.618 76.0455L110.824 76.1914L111.33 75.4625Z" fill="#6C63FF"/>
<path d="M111.923 80.1509L112.068 79.9426L111.345 79.4323L111.201 79.6406L111.923 80.1509Z" fill="#6C63FF"/>
<path d="M107.277 80.7494L107.484 80.8953L107.989 80.1664L107.783 80.0205L107.277 80.7494Z" fill="#6C63FF"/>
<path d="M106.685 76.062L106.54 76.2703L107.262 76.7806L107.407 76.5723L106.685 76.062Z" fill="#6C63FF"/>
<path opacity="0.2" d="M111.328 75.4549L111.121 75.3091L110.615 76.0379L110.822 76.1838L111.328 75.4549Z" fill="black"/>
<path opacity="0.2" d="M111.921 80.1434L112.066 79.9351L111.343 79.4247L111.199 79.633L111.921 80.1434Z" fill="black"/>
<path opacity="0.2" d="M107.275 80.7416L107.482 80.8875L107.988 80.1586L107.781 80.0127L107.275 80.7416Z" fill="black"/>
<path opacity="0.2" d="M106.683 76.0544L106.538 76.2627L107.26 76.7731L107.405 76.5648L106.683 76.0544Z" fill="black"/>
<path d="M109.304 80.8706C110.817 80.8706 112.044 79.6326 112.044 78.1055C112.044 76.5783 110.817 75.3403 109.304 75.3403C107.79 75.3403 106.563 76.5783 106.563 78.1055C106.563 79.6326 107.79 80.8706 109.304 80.8706Z" fill="url(#paint11_linear)"/>
<path d="M109.304 80.7119C110.73 80.7119 111.887 79.5449 111.887 78.1052C111.887 76.6656 110.73 75.4985 109.304 75.4985C107.877 75.4985 106.72 76.6656 106.72 78.1052C106.72 79.5449 107.877 80.7119 109.304 80.7119Z" fill="#1F7042"/>
<path opacity="0.2" d="M107.193 78.4549C107.192 77.9978 107.311 77.5486 107.537 77.1524C107.763 76.7562 108.088 76.4269 108.48 76.1976C108.872 75.9683 109.316 75.847 109.769 75.8458C110.222 75.8447 110.668 75.9638 111.061 76.1912C110.797 75.9352 110.483 75.7387 110.138 75.6146C109.793 75.4905 109.427 75.4416 109.062 75.4713C108.697 75.501 108.343 75.6086 108.022 75.7868C107.702 75.9651 107.423 76.21 107.203 76.5053C106.984 76.8007 106.829 77.1397 106.749 77.5C106.669 77.8603 106.666 78.2335 106.74 78.5951C106.814 78.9567 106.963 79.2983 107.177 79.5974C107.392 79.8964 107.667 80.146 107.984 80.3297C107.734 80.0872 107.535 79.7961 107.399 79.4739C107.263 79.1517 107.193 78.8051 107.193 78.4549Z" fill="white"/>
<path d="M98.309 75.7851H96.2927V70.7057C96.2929 70.6533 96.3136 70.6032 96.3503 70.5662C96.387 70.5293 96.4368 70.5085 96.4887 70.5085H98.1137C98.1656 70.5085 98.2155 70.5294 98.2522 70.5664C98.2889 70.6035 98.3096 70.6538 98.3096 70.7062L98.309 75.7851Z" fill="url(#paint12_linear)"/>
<path d="M98.1034 85.7673H96.4984C96.4438 85.7673 96.3915 85.7454 96.353 85.7065C96.3144 85.6676 96.2927 85.6148 96.2927 85.5598V80.4907H98.309V85.5587C98.3092 85.586 98.304 85.6131 98.2937 85.6384C98.2834 85.6637 98.2683 85.6867 98.2492 85.7061C98.2301 85.7255 98.2074 85.7409 98.1823 85.7514C98.1573 85.7619 98.1305 85.7673 98.1034 85.7673Z" fill="url(#paint13_linear)"/>
<path d="M96.5266 70.5715H98.0749C98.1203 70.5715 98.1638 70.5897 98.1959 70.6221C98.228 70.6545 98.246 70.6984 98.246 70.7442V75.6575H96.3571V70.7458C96.3569 70.7231 96.3611 70.7006 96.3695 70.6796C96.3779 70.6586 96.3903 70.6394 96.4061 70.6232C96.4218 70.6071 96.4405 70.5942 96.4612 70.5853C96.4819 70.5764 96.5041 70.5717 96.5266 70.5715Z" fill="#FAFAFA"/>
<path d="M96.3554 80.5544H98.2443V85.5821C98.2443 85.5974 98.2382 85.6121 98.2275 85.6229C98.2168 85.6338 98.2022 85.6399 98.1871 85.6399H96.4131C96.3979 85.6399 96.3834 85.6338 96.3726 85.6229C96.3619 85.6121 96.3559 85.5974 96.3559 85.5821V80.5544H96.3554Z" fill="#FAFAFA"/>
</g>
<g clip-path="url(#clip1)">
<path d="M230.417 97.6902C230.408 97.6531 229.603 93.938 231.247 90.8524C232.891 87.7669 236.4 86.4061 236.435 86.3927L236.595 86.3318L236.633 86.501C236.642 86.5381 237.446 90.2532 235.803 93.3388C234.159 96.4243 230.65 97.7851 230.615 97.7985L230.454 97.8594L230.417 97.6902ZM236.375 86.7446C235.673 87.0507 232.899 88.39 231.51 90.996C230.122 93.6023 230.541 96.6844 230.674 97.4466C231.377 97.1413 234.15 95.804 235.539 93.1952C236.928 90.5891 236.509 87.5073 236.375 86.7446Z" fill="#3F3D56"/>
<path d="M234.546 92.2568C231.592 94.0557 230.455 97.6288 230.455 97.6288C230.455 97.6288 234.106 98.2853 237.06 96.4864C240.014 94.6875 241.152 91.1144 241.152 91.1144C241.152 91.1144 237.5 90.4579 234.546 92.2568Z" fill="#D0CDE1"/>
<path d="M244 97.6536H74.1047V97.9703H244V97.6536Z" fill="#3F3D56"/>
<path d="M205.512 54.5209L206.778 74.3862C206.778 74.3862 209.817 82.2041 209.69 89.6376C209.69 89.6376 208.551 92.5854 209.437 93.098C210.323 93.6107 210.83 93.9952 210.323 94.3796C209.817 94.7641 209.437 95.6613 209.817 95.9176C210.197 96.1739 210.323 96.5584 210.197 96.5584H206.398C206.398 96.5584 207.158 94.636 206.019 94.1233C204.879 93.6107 205.512 92.329 205.512 92.329L197.029 67.2091L190.319 90.2784C190.319 90.2784 191.458 91.0474 190.572 91.4319C189.686 91.8164 189.306 91.0474 189.686 91.8164C190.066 92.5854 189.559 92.9698 189.559 93.098C189.559 93.2262 185.761 92.7135 185.761 92.7135C185.761 92.7135 187.66 91.0474 186.774 90.6629C185.888 90.2784 185.508 89.8939 185.761 89.6376C186.014 89.3813 187.027 86.9462 187.027 86.9462C187.027 86.9462 187.534 77.7184 187.66 77.3339C187.787 76.9495 187.66 75.1552 187.66 74.258C187.66 73.3609 187.534 69.7723 187.913 68.8752C188.293 67.978 188.673 56.956 190.699 55.6744C192.725 54.3927 205.512 54.5209 205.512 54.5209Z" fill="#4D565F"/>
<path d="M189.433 92.4572C189.433 92.4572 191.965 97.7116 190.192 98.3524C188.42 98.9931 186.141 98.4805 185.634 99.2495C185.128 100.018 179.557 100.915 179.431 98.9931C179.304 97.0708 185.508 93.4825 185.508 93.4825L186.316 92.1653L189.433 92.4572Z" fill="#000D1A"/>
<path d="M209.943 96.3019C209.943 96.3019 212.476 101.556 210.703 102.197C208.931 102.838 206.652 102.325 206.145 103.094C205.639 103.863 200.068 104.76 199.941 102.838C199.815 100.916 206.019 97.3272 206.019 97.3272L206.827 96.01L209.943 96.3019Z" fill="#000D1A"/>
<path d="M198.232 30.3611C200.54 30.3611 202.41 28.4676 202.41 26.1319C202.41 23.7963 200.54 21.9028 198.232 21.9028C195.925 21.9028 194.054 23.7963 194.054 26.1319C194.054 28.4676 195.925 30.3611 198.232 30.3611Z" fill="#E0A5AE"/>
<path d="M201.081 28.3745L200.574 32.091L196.776 35.0386L195.763 33.6289V28.759L201.081 28.3745Z" fill="#E0A5AE"/>
<path d="M195.13 33.1176C195.13 33.1176 199.055 33.5021 201.081 32.0923L205.132 56.3151C205.132 56.3151 190.825 57.4686 190.192 56.6996V49.138L192.724 36.8343L195.13 33.1176Z" fill="#1F7042"/>
<path d="M200.732 30.9341L202.094 32.0922C202.094 32.0922 207.665 32.9893 207.285 34.5273L205.765 52.7265L206.272 58.8783C206.272 58.8783 201.967 57.7248 198.675 58.8783C195.383 60.0318 197.999 34.0911 197.999 34.0911C197.999 34.0911 201.017 31.3139 200.732 30.9341Z" fill="#BEEBD1"/>
<path d="M195.763 32.3372C195.763 32.3372 191.712 35.2965 191.205 37.219C190.699 39.1414 189.053 59.3912 189.053 59.3912C189.053 59.3912 189.812 59.0067 190.192 59.6475C190.572 60.2883 196.396 33.3509 195.763 32.3372Z" fill="#BEEBD1"/>
<path d="M194.056 25.9479C194.056 25.9479 193.604 25.2611 193.778 24.5215C193.881 24.1016 193.923 23.6683 193.899 23.2361C193.899 23.2361 194.265 22.0387 194.63 21.3696C194.995 20.7004 194.821 20.4187 195.97 20.2074C197.118 19.9961 196.648 18.4817 199.675 20.1193C199.777 20.2637 199.919 20.3742 200.083 20.4368C200.247 20.4995 200.426 20.5116 200.597 20.4715C201.223 20.3483 201.449 21.2287 201.449 21.2287C201.449 21.2287 201.867 20.9822 202.024 21.3343C202.18 21.6865 203.296 21.123 203.296 23.5002C203.296 25.8774 202.026 28.0008 202.026 28.0008C202.026 28.0008 202.119 24.0021 200.049 23.5971C197.979 23.1921 195.752 22.0123 195.213 23.5266C194.922 24.3766 194.533 25.1892 194.056 25.9479Z" fill="#2F2E41"/>
<path d="M202.071 26.8986C202.297 26.8986 202.48 26.6518 202.48 26.3475C202.48 26.0431 202.297 25.7964 202.071 25.7964C201.846 25.7964 201.663 26.0431 201.663 26.3475C201.663 26.6518 201.846 26.8986 202.071 26.8986Z" fill="#E0A5AE"/>
<path d="M206.905 59.1346L205.997 62.1324C205.997 62.1324 205.765 67.721 202.727 66.9521C199.688 66.1832 203.613 59.6473 203.613 59.6473L204.499 58.2375L206.905 59.1346Z" fill="#E0A5AE"/>
<path d="M189.686 59.1346L188.778 62.1324C188.778 62.1324 188.546 67.721 185.508 66.9521C182.469 66.1832 186.394 59.6473 186.394 59.6473L187.28 58.2375L189.686 59.1346Z" fill="#E0A5AE"/>
<path d="M190.79 62.1719H181.821V66.0362H190.79V62.1719Z" fill="#D6D3FF"/>
<path opacity="0.1" d="M190.79 62.1719H181.821V66.0362H190.79V62.1719Z" fill="black"/>
<path opacity="0.2" d="M186.305 65.1669C186.885 65.1669 187.355 64.6911 187.355 64.1042C187.355 63.5173 186.885 63.0415 186.305 63.0415C185.726 63.0415 185.256 63.5173 185.256 64.1042C185.256 64.6911 185.726 65.1669 186.305 65.1669Z" fill="black"/>
<path opacity="0.2" d="M183.92 65.7464H182.202V62.4617H184.015V62.6549H182.393V65.5531H183.92V65.7464Z" fill="black"/>
<path opacity="0.2" d="M190.408 65.7464H188.691V65.5531H190.217V62.6549H188.595V62.4617H190.408V65.7464Z" fill="black"/>
<path d="M189.672 62.5364L181.111 65.2432L182.248 68.9318L190.81 66.2251L189.672 62.5364Z" fill="#D6D3FF"/>
<path opacity="0.2" d="M185.96 66.7968C186.54 66.7968 187.01 66.321 187.01 65.7341C187.01 65.1472 186.54 64.6714 185.96 64.6714C185.381 64.6714 184.911 65.1472 184.911 65.7341C184.911 66.321 185.381 66.7968 185.96 66.7968Z" fill="black"/>
<path opacity="0.2" d="M184.167 68.0218L182.527 68.5401L181.56 65.4048L183.291 64.8577L183.348 65.0421L181.799 65.5316L182.653 68.2981L184.11 67.8374L184.167 68.0218Z" fill="black"/>
<path opacity="0.2" d="M190.36 66.0636L188.721 66.582L188.664 66.3975L190.121 65.9368L189.268 63.1703L187.72 63.6599L187.663 63.4753L189.393 62.9282L190.36 66.0636Z" fill="black"/>
<path d="M206.272 33.6303C206.272 33.6303 208.298 33.1176 208.931 36.5781C209.564 40.0385 210.323 49.907 210.323 49.907L207.285 60.2882C207.285 60.2882 204.246 58.6221 203.613 58.8785L206.004 49.8659L203.993 40.6793C203.993 40.6793 205.765 33.6303 206.272 33.6303Z" fill="#BEEBD1"/>
<path opacity="0.15" d="M203.326 40.8545L205.985 49.8259L203.326 58.9255L204.846 49.8259L203.326 40.8545Z" fill="black"/>
<path d="M191.205 40.6794L186.647 58.8786C186.647 58.8786 189.051 59.6818 189.938 60.3226L191.205 40.6794Z" fill="#BEEBD1"/>
</g>
<defs>
<linearGradient id="paint0_linear" x1="122.598" y1="99.5542" x2="122.598" y2="96.3213" gradientUnits="userSpaceOnUse">
<stop stop-color="#808080" stop-opacity="0.25"/>
<stop offset="0.54" stop-color="#808080" stop-opacity="0.12"/>
<stop offset="1" stop-color="#808080" stop-opacity="0.1"/>
</linearGradient>
<linearGradient id="paint1_linear" x1="349.333" y1="96.3213" x2="349.333" y2="2274.1" gradientUnits="userSpaceOnUse">
<stop stop-color="#808080" stop-opacity="0.25"/>
<stop offset="0.54" stop-color="#808080" stop-opacity="0.12"/>
<stop offset="1" stop-color="#808080" stop-opacity="0.1"/>
</linearGradient>
<linearGradient id="paint2_linear" x1="8388.27" y1="14249.9" x2="8388.27" y2="2844.29" gradientUnits="userSpaceOnUse">
<stop stop-color="#808080" stop-opacity="0.25"/>
<stop offset="0.54" stop-color="#808080" stop-opacity="0.12"/>
<stop offset="1" stop-color="#808080" stop-opacity="0.1"/>
</linearGradient>
<linearGradient id="paint3_linear" x1="6890.48" y1="31.7415" x2="6814.34" y2="-252.641" gradientUnits="userSpaceOnUse">
<stop stop-color="#808080" stop-opacity="0.25"/>
<stop offset="0.54" stop-color="#808080" stop-opacity="0.12"/>
<stop offset="1" stop-color="#808080" stop-opacity="0.1"/>
</linearGradient>
<linearGradient id="paint4_linear" x1="1723.48" y1="4996.12" x2="1920.85" y2="4426.77" gradientUnits="userSpaceOnUse">
<stop stop-color="#808080" stop-opacity="0.25"/>
<stop offset="0.54" stop-color="#808080" stop-opacity="0.12"/>
<stop offset="1" stop-color="#808080" stop-opacity="0.1"/>
</linearGradient>
<linearGradient id="paint5_linear" x1="4713.54" y1="1583.06" x2="4713.54" y2="1288.49" gradientUnits="userSpaceOnUse">
<stop stop-color="#808080" stop-opacity="0.25"/>
<stop offset="0.54" stop-color="#808080" stop-opacity="0.12"/>
<stop offset="1" stop-color="#808080" stop-opacity="0.1"/>
</linearGradient>
<linearGradient id="paint6_linear" x1="3181.98" y1="3947.89" x2="3181.98" y2="2408.8" gradientUnits="userSpaceOnUse">
<stop stop-color="#808080" stop-opacity="0.25"/>
<stop offset="0.54" stop-color="#808080" stop-opacity="0.12"/>
<stop offset="1" stop-color="#808080" stop-opacity="0.1"/>
</linearGradient>
<linearGradient id="paint7_linear" x1="489.907" y1="821.493" x2="489.907" y2="785.569" gradientUnits="userSpaceOnUse">
<stop stop-color="#808080" stop-opacity="0.25"/>
<stop offset="0.54" stop-color="#808080" stop-opacity="0.12"/>
<stop offset="1" stop-color="#808080" stop-opacity="0.1"/>
</linearGradient>
<linearGradient id="paint8_linear" x1="534.93" y1="821.493" x2="534.93" y2="785.569" gradientUnits="userSpaceOnUse">
<stop stop-color="#808080" stop-opacity="0.25"/>
<stop offset="0.54" stop-color="#808080" stop-opacity="0.12"/>
<stop offset="1" stop-color="#808080" stop-opacity="0.1"/>
</linearGradient>
<linearGradient id="paint9_linear" x1="579.953" y1="821.493" x2="579.953" y2="785.569" gradientUnits="userSpaceOnUse">
<stop stop-color="#808080" stop-opacity="0.25"/>
<stop offset="0.54" stop-color="#808080" stop-opacity="0.12"/>
<stop offset="1" stop-color="#808080" stop-opacity="0.1"/>
</linearGradient>
<linearGradient id="paint10_linear" x1="624.975" y1="821.493" x2="624.975" y2="785.569" gradientUnits="userSpaceOnUse">
<stop stop-color="#808080" stop-opacity="0.25"/>
<stop offset="0.54" stop-color="#808080" stop-opacity="0.12"/>
<stop offset="1" stop-color="#808080" stop-opacity="0.1"/>
</linearGradient>
<linearGradient id="paint11_linear" x1="1965.48" y1="2231.77" x2="1965.48" y2="1670.06" gradientUnits="userSpaceOnUse">
<stop stop-color="#808080" stop-opacity="0.25"/>
<stop offset="0.54" stop-color="#808080" stop-opacity="0.12"/>
<stop offset="1" stop-color="#808080" stop-opacity="0.1"/>
</linearGradient>
<linearGradient id="paint12_linear" x1="857.847" y1="2078.44" x2="857.847" y2="1567.15" gradientUnits="userSpaceOnUse">
<stop stop-color="#808080" stop-opacity="0.25"/>
<stop offset="0.54" stop-color="#808080" stop-opacity="0.12"/>
<stop offset="1" stop-color="#808080" stop-opacity="0.1"/>
</linearGradient>
<linearGradient id="paint13_linear" x1="857.644" y1="3055.56" x2="857.644" y2="2544.27" gradientUnits="userSpaceOnUse">
<stop stop-color="#808080" stop-opacity="0.25"/>
<stop offset="0.54" stop-color="#808080" stop-opacity="0.12"/>
<stop offset="1" stop-color="#808080" stop-opacity="0.1"/>
</linearGradient>
<clipPath id="clip0">
<rect width="36.6073" height="39.9169" fill="white" transform="translate(91 59.6375)"/>
</clipPath>
<clipPath id="clip1">
<rect width="114.202" height="89.9715" fill="white" transform="translate(129.798 14.0181)"/>
</clipPath>
</defs>
</svg>
